<svg width="32" height="33" viewBox="0 0 32 33" fill="none" xmlns="http://www.w3.org/2000/svg">
<g id="Social Icons">
<path id="BG" opacity="0.1" fill-rule="evenodd" clip-rule="evenodd" d="M0 16.7764C0 7.93981 7.16344 0.776367 16 0.776367C24.8366 0.776367 32 7.93981 32 16.7764C32 25.6129 24.8366 32.7764 16 32.7764C7.16344 32.7764 0 25.6129 0 16.7764Z" fill="#192A52"/>
<path id="Path" fill-rule="evenodd" clip-rule="evenodd" d="M24.5333 16.7647C24.5333 17.3418 24.4746 17.918 24.3592 18.4798C24.2467 19.0282 24.08 19.5666 23.8617 20.0813C23.6483 20.5869 23.3837 21.0741 23.0745 21.5285C22.77 21.9799 22.4191 22.4035 22.0337 22.7896C21.6474 23.1741 21.2224 23.524 20.7711 23.8298C20.3152 24.1369 19.8273 24.4011 19.3215 24.6154C18.806 24.8326 18.2664 24.999 17.7184 25.1114C17.1559 25.2271 16.5776 25.2861 15.9996 25.2861C15.4213 25.2861 14.8429 25.2271 14.2812 25.1114C13.7324 24.999 13.1928 24.8326 12.6778 24.6154C12.1719 24.4011 11.6836 24.1369 11.2277 23.8298C10.7764 23.524 10.3514 23.1741 9.96599 22.7896C9.58015 22.4035 9.22928 21.9799 8.92427 21.5285C8.61675 21.0741 8.35172 20.5869 8.13755 20.0813C7.91918 19.5666 7.75211 19.0282 7.63919 18.4798C7.52503 17.918 7.46667 17.3418 7.46667 16.7647C7.46667 16.1871 7.52499 15.6096 7.63922 15.0491C7.75215 14.5007 7.91922 13.9615 8.13759 13.4476C8.35175 12.9416 8.61678 12.454 8.9243 11.9996C9.22931 11.5478 9.58018 11.125 9.96602 10.7384C10.3515 10.354 10.7765 10.0049 11.2278 9.69948C11.6836 9.39114 12.172 9.12696 12.6778 8.91224C13.1929 8.69459 13.7324 8.52776 14.2812 8.41626C14.8429 8.30143 15.4213 8.24316 15.9997 8.24316C16.5776 8.24316 17.1559 8.30143 17.7185 8.41626C18.2664 8.52779 18.806 8.69462 19.3215 8.91224C19.8273 9.12693 20.3153 9.39114 20.7711 9.69948C21.2224 10.0049 21.6475 10.354 22.0337 10.7384C22.4191 11.125 22.77 11.5478 23.0746 11.9996C23.3837 12.454 23.6483 12.9417 23.8617 13.4476C24.08 13.9615 24.2467 14.5007 24.3592 15.0491C24.4746 15.6096 24.5333 16.1871 24.5333 16.7647ZM12.8903 10.1825C10.8581 11.1408 9.34131 13.0107 8.86836 15.2642C9.06048 15.2659 12.0973 15.3042 15.5962 14.3759C14.3349 12.1381 12.9874 10.312 12.8903 10.1825ZM16.2 15.4964C12.4477 16.6182 8.84711 16.5375 8.71795 16.5325C8.71585 16.6107 8.71211 16.6864 8.71211 16.7647C8.71211 18.6341 9.41839 20.3384 10.5793 21.6271C10.5768 21.6233 12.5711 18.0903 16.5038 16.8204C16.5988 16.7888 16.6955 16.7605 16.7913 16.733C16.6084 16.3195 16.4087 15.905 16.2 15.4964ZM20.8124 11.3031C19.5293 10.1734 17.8447 9.48813 15.9996 9.48813C15.4075 9.48813 14.8329 9.5597 14.2824 9.69201C14.3916 9.83849 15.7604 11.6518 17.0067 13.9369C19.7565 12.9075 20.7944 11.3297 20.8124 11.3031ZM17.288 17.9389C17.2718 17.9442 17.2556 17.9489 17.2397 17.9547C12.94 19.4515 11.5358 22.4679 11.5206 22.5008C12.7578 23.4616 14.3096 24.0412 15.9996 24.0412C17.0088 24.0412 17.9701 23.836 18.8448 23.4645C18.7368 22.8287 18.3135 20.6002 17.288 17.9389ZM20.0719 22.7996C21.7082 21.697 22.8703 19.9461 23.1945 17.918C23.0445 17.8698 21.0057 17.2252 18.6535 17.6018C19.6093 20.2248 19.9977 22.3611 20.0719 22.7996ZM17.5676 15.0212C17.7368 15.3683 17.9006 15.7215 18.0518 16.0764C18.1056 16.2038 18.1581 16.3286 18.2093 16.4534C20.7128 16.1388 23.1792 16.6681 23.2846 16.6897C23.2679 14.9646 22.65 13.3814 21.6275 12.1419C21.6137 12.1614 20.4449 13.8478 17.5676 15.0212Z" fill="#192A52"/>
</g>
</svg>
