<svg width="32" height="33" viewBox="0 0 32 33" fill="none" xmlns="http://www.w3.org/2000/svg">
<g id="Social Icons">
<path id="BG" opacity="0.1" fill-rule="evenodd" clip-rule="evenodd" d="M0 16.7764C0 7.93981 7.16344 0.776367 16 0.776367C24.8366 0.776367 32 7.93981 32 16.7764C32 25.6129 24.8366 32.7764 16 32.7764C7.16344 32.7764 0 25.6129 0 16.7764Z" fill="#192A52"/>
<path id="Path" fill-rule="evenodd" clip-rule="evenodd" d="M16.0008 8.24316C13.6833 8.24316 13.3924 8.2533 12.4822 8.29472C11.5737 8.33632 10.9536 8.48014 10.4111 8.69117C9.84981 8.90913 9.37372 9.20069 8.8994 9.67518C8.42473 10.1495 8.13317 10.6256 7.9145 11.1867C7.70294 11.7294 7.55894 12.3497 7.51805 13.2578C7.47734 14.168 7.46667 14.4591 7.46667 16.7766C7.46667 19.0941 7.47699 19.3841 7.51823 20.2943C7.56001 21.2028 7.70383 21.8229 7.91468 22.3654C8.13282 22.9267 8.42437 23.4028 8.89887 23.8771C9.37301 24.3518 9.8491 24.644 10.41 24.862C10.9529 25.073 11.5732 25.2169 12.4815 25.2585C13.3917 25.2999 13.6824 25.31 15.9997 25.31C18.3175 25.31 18.6074 25.2999 19.5176 25.2585C20.4261 25.2169 21.0469 25.073 21.5898 24.862C22.1509 24.644 22.6263 24.3518 23.1004 23.8771C23.5751 23.4028 23.8667 22.9267 24.0853 22.3656C24.2951 21.8229 24.4391 21.2026 24.4818 20.2945C24.5227 19.3843 24.5333 19.0941 24.5333 16.7766C24.5333 14.4591 24.5227 14.1682 24.4818 13.258C24.4391 12.3495 24.2951 11.7294 24.0853 11.1868C23.8667 10.6256 23.5751 10.1495 23.1004 9.67518C22.6258 9.20051 22.1511 8.90895 21.5893 8.69117C21.0453 8.48014 20.4249 8.33632 19.5164 8.29472C18.6062 8.2533 18.3164 8.24316 15.9981 8.24316H16.0008ZM15.2353 9.78093C15.4625 9.78058 15.716 9.78093 16.0008 9.78093C18.2792 9.78093 18.5492 9.78911 19.449 9.83C20.281 9.86805 20.7326 10.0071 21.0334 10.1239C21.4316 10.2785 21.7155 10.4634 22.014 10.7621C22.3127 11.0608 22.4976 11.3452 22.6526 11.7434C22.7694 12.0439 22.9086 12.4955 22.9464 13.3275C22.9873 14.227 22.9962 14.4973 22.9962 16.7746C22.9962 19.052 22.9873 19.3222 22.9464 20.2218C22.9084 21.0538 22.7694 21.5053 22.6526 21.8058C22.4979 22.204 22.3127 22.4876 22.014 22.786C21.7153 23.0847 21.4318 23.2696 21.0334 23.4243C20.7329 23.5416 20.281 23.6803 19.449 23.7183C18.5494 23.7592 18.2792 23.7681 16.0008 23.7681C13.7222 23.7681 13.4521 23.7592 12.5526 23.7183C11.7205 23.6799 11.269 23.5409 10.968 23.4241C10.5698 23.2694 10.2853 23.0845 9.98666 22.7859C9.68799 22.4872 9.5031 22.2035 9.34808 21.8051C9.23128 21.5046 9.09208 21.0531 9.05421 20.221C9.01332 19.3215 9.00514 19.0513 9.00514 16.7725C9.00514 14.4937 9.01332 14.2249 9.05421 13.3253C9.09226 12.4933 9.23128 12.0418 9.34808 11.741C9.50275 11.3427 9.68799 11.0583 9.98666 10.7596C10.2853 10.4609 10.5698 10.2761 10.968 10.121C11.2688 10.0037 11.7205 9.86502 12.5526 9.8268C13.3398 9.79124 13.6448 9.78058 15.2353 9.7788V9.78093ZM20.5558 11.1978C19.9905 11.1978 19.5318 11.656 19.5318 12.2215C19.5318 12.7868 19.9905 13.2455 20.5558 13.2455C21.1212 13.2455 21.5799 12.7868 21.5799 12.2215C21.5799 11.6562 21.1212 11.1978 20.5558 11.1978ZM16.0008 12.3943C13.5807 12.3943 11.6186 14.3564 11.6186 16.7766C11.6186 19.1967 13.5807 21.1579 16.0008 21.1579C18.4209 21.1579 20.3824 19.1967 20.3824 16.7766C20.3824 14.3564 18.4209 12.3943 16.0008 12.3943ZM16.0008 13.9321C17.5717 13.9321 18.8453 15.2055 18.8453 16.7766C18.8453 18.3474 17.5717 19.621 16.0008 19.621C14.4298 19.621 13.1563 18.3474 13.1563 16.7766C13.1563 15.2055 14.4298 13.9321 16.0008 13.9321Z" fill="#192A52"/>
</g>
</svg>
