<svg width="32" height="33" viewBox="0 0 32 33" fill="none" xmlns="http://www.w3.org/2000/svg">
<g id="Social Icons">
<path id="BG" opacity="0.1" fill-rule="evenodd" clip-rule="evenodd" d="M0 16.7764C0 7.93981 7.16344 0.776367 16 0.776367C24.8366 0.776367 32 7.93981 32 16.7764C32 25.6129 24.8366 32.7764 16 32.7764C7.16344 32.7764 0 25.6129 0 16.7764Z" fill="#192A52"/>
<g id="Path">
<path d="M11.5459 10.6582C11.5223 9.58997 10.7584 8.77637 9.51803 8.77637C8.27761 8.77637 7.46667 9.58997 7.46667 10.6582C7.46667 11.7042 8.25365 12.5413 9.47096 12.5413H9.49413C10.7584 12.5413 11.5459 11.7042 11.5459 10.6582Z" fill="#192A52"/>
<path d="M11.307 14.0283H7.68109V24.9228H11.307V14.0283Z" fill="#192A52"/>
<path d="M20.2088 13.7725C22.5948 13.7725 24.3836 15.3299 24.3836 18.6762L24.3835 24.9228H20.7577V19.0942C20.7577 17.6302 20.233 16.6312 18.9204 16.6312C17.9186 16.6312 17.3219 17.3047 17.0599 17.9552C16.964 18.1883 16.9405 18.5131 16.9405 18.8387V24.923H13.3141C13.3141 24.923 13.3619 15.0509 13.3141 14.0286H16.9405V15.5717C17.4217 14.8299 18.2836 13.7725 20.2088 13.7725Z" fill="#192A52"/>
</g>
</g>
</svg>
