<svg width="32" height="33" viewBox="0 0 32 33" fill="none" xmlns="http://www.w3.org/2000/svg">
<path opacity="0.1" fill-rule="evenodd" clip-rule="evenodd" d="M0 16.2959C0 7.45934 7.16344 0.295898 16 0.295898C24.8366 0.295898 32 7.45934 32 16.2959C32 25.1325 24.8366 32.2959 16 32.2959C7.16344 32.2959 0 25.1325 0 16.2959Z" fill="white"/>
<path d="M11.546 10.1777C11.5224 9.1095 10.7586 8.2959 9.51815 8.2959C8.27774 8.2959 7.4668 9.1095 7.4668 10.1777C7.4668 11.2238 8.25377 12.0608 9.47108 12.0608H9.49426C10.7586 12.0608 11.546 11.2238 11.546 10.1777Z" fill="white"/>
<path d="M11.3072 13.5479H7.68121V24.4423H11.3072V13.5479Z" fill="white"/>
<path d="M20.2089 13.292C22.5949 13.292 24.3837 14.8494 24.3837 18.1957L24.3836 24.4423H20.7578V18.6137C20.7578 17.1497 20.2331 16.1507 18.9205 16.1507C17.9187 16.1507 17.3221 16.8242 17.06 17.4747C16.9641 17.7078 16.9406 18.0326 16.9406 18.3582V24.4426H13.3142C13.3142 24.4426 13.362 14.5704 13.3142 13.5481H16.9406V15.0912C17.4218 14.3494 18.2838 13.292 20.2089 13.292Z" fill="white"/>
</svg>
