<svg width="32" height="33" viewBox="0 0 32 33" fill="none" xmlns="http://www.w3.org/2000/svg">
<g id="Social Icons">
<path id="BG" opacity="0.1" fill-rule="evenodd" clip-rule="evenodd" d="M0 16.7764C0 7.93981 7.16344 0.776367 16 0.776367C24.8366 0.776367 32 7.93981 32 16.7764C32 25.6129 24.8366 32.7764 16 32.7764C7.16344 32.7764 0 25.6129 0 16.7764Z" fill="#192A52"/>
<path id="Path" fill-rule="evenodd" clip-rule="evenodd" d="M15.5208 13.7815L15.5544 14.3351L14.9948 14.2673C12.9579 14.0074 11.1784 13.1261 9.66756 11.646L8.92891 10.9116L8.73865 11.4539C8.33575 12.6629 8.59316 13.9396 9.43253 14.7983C9.8802 15.2729 9.77948 15.3407 9.00725 15.0582C8.73865 14.9678 8.50363 14.9 8.48124 14.9339C8.4029 15.013 8.6715 16.0412 8.88414 16.448C9.17513 17.0129 9.76828 17.5665 10.4174 17.8942L10.9658 18.1541L10.3167 18.1654C9.68994 18.1654 9.66756 18.1767 9.73471 18.4139C9.95854 19.1483 10.8427 19.928 11.8276 20.2669L12.5214 20.5042L11.9171 20.8657C11.0218 21.3855 9.96973 21.6793 8.91772 21.7019C8.41409 21.7132 8 21.7583 8 21.7922C8 21.9052 9.36538 22.538 10.16 22.7865C12.5438 23.5209 15.3753 23.2046 17.5017 21.9504C19.0126 21.0578 20.5235 19.2839 21.2286 17.5665C21.6091 16.6513 21.9896 14.9791 21.9896 14.1769C21.9896 13.6572 22.0232 13.5894 22.6499 12.968C23.0192 12.6064 23.3662 12.2109 23.4333 12.098C23.5452 11.8833 23.534 11.8833 22.9633 12.0754C22.012 12.4143 21.8777 12.3691 22.3477 11.8607C22.6947 11.4991 23.1088 10.8438 23.1088 10.6517C23.1088 10.6178 22.9409 10.6743 22.7506 10.776C22.5492 10.889 22.1015 11.0585 21.7658 11.1602L21.1614 11.3522L20.613 10.9794C20.3108 10.776 19.8856 10.55 19.6617 10.4822C19.0909 10.3241 18.218 10.3467 17.7032 10.5274C16.3042 11.0359 15.4201 12.3465 15.5208 13.7815Z" fill="#192A52"/>
</g>
</svg>
