<svg width="659" height="142" viewBox="0 0 659 142" fill="none" xmlns="http://www.w3.org/2000/svg">
<path d="M200.867 113V83.1333C200.867 73.9167 205.417 69.25 214.75 69.25C216.15 69.25 217.55 69.3667 218.95 69.6V54.0833H216.967C210.783 54.0833 204.95 54.7833 199.933 62.4833V55.6H185.7V113H200.867ZM275.217 113V73.2167C275.217 60.7333 267.167 54.0833 256.2 54.0833C246.984 54.0833 241.15 57.5833 237.65 64V55.6H223.184V113H238.35V80.1C238.35 71.35 242.2 66.9167 250.134 66.9167C257.367 66.9167 259.934 69.3667 259.934 78.2333V113H275.217ZM380.817 113V71.35H348.5V84.3H365.65C365.65 93.9833 357.367 102.033 346.75 102.033C331.7 102.033 325.283 87.5667 325.283 74.85C325.283 56.4167 333.917 46.3833 346.867 46.3833C355.733 46.3833 363.55 52.2167 364.367 59.45H380.7C379.533 43.9333 365.3 32.9667 346.867 32.9667C321.783 32.9667 308.717 51.2833 308.717 74.15C308.717 95.7333 322.367 115.683 343.833 115.683C354.45 115.683 363.317 111.833 367.05 105.3L367.4 113H380.817ZM401.957 113V34.6H386.791V113H401.957ZM436.557 101.8C427.34 101.8 422.674 95.9667 422.674 84.3C422.674 72.6333 427.34 66.9167 436.557 66.9167C445.774 66.9167 450.44 72.6333 450.44 84.3C450.44 95.9667 445.774 101.8 436.557 101.8ZM436.557 114.517C454.407 114.517 465.724 102.5 465.724 84.3C465.724 65.9833 454.524 54.0833 436.557 54.0833C418.357 54.0833 407.04 66.1 407.04 84.3C407.04 102.15 418.007 114.517 436.557 114.517ZM498.398 102.15C491.164 102.15 485.564 95.3833 485.564 85.7C485.564 73.2167 489.881 67.0333 498.281 67.0333C507.148 67.0333 511.348 72.9833 511.348 84.7667C511.348 95.0333 505.981 102.15 498.398 102.15ZM485.798 113L485.914 106C489.531 111.833 494.898 114.517 501.898 114.517C516.364 114.517 526.748 103.083 526.748 83.7167C526.748 66.3333 517.998 54.0833 503.181 54.0833C496.064 54.0833 490.464 57 486.148 63.0667V34.6H471.214V113H485.798ZM584.079 113V55.6H569.029V88.7333C569.029 96.3167 564.946 101.8 557.246 101.8C550.829 101.8 547.563 98.3 547.563 91.0667V55.6H532.396V93.4C532.396 106 540.446 114.517 551.879 114.517C559.813 114.517 565.763 111.483 569.729 104.95V113H584.079ZM639.846 72.9833C639.029 60.6167 631.563 54.0833 614.996 54.0833C597.496 54.0833 590.846 61.4333 590.846 71.1167C590.846 76.25 592.713 80.6833 598.079 84.0667C602.163 86.6333 607.529 88.2667 617.213 90.6C622.113 91.7667 626.429 93.05 626.429 97.1333C626.429 101.45 621.646 103.083 616.279 103.083C608.929 103.083 604.379 99.9333 604.379 94.5667H588.746C588.979 106.233 598.779 114.517 616.396 114.517C632.729 114.517 641.479 107.4 641.479 95.5C641.479 88.0333 638.096 84.0667 632.029 81.6167C627.596 79.8667 621.413 78.5833 614.879 76.7167C608.696 74.9667 605.546 73.5667 605.546 70.1833C605.546 66.8 608.813 65.4 614.529 65.4C621.413 65.4 624.446 67.3833 625.263 72.9833H639.846Z" fill="white"/>
<path d="M46.9 83.7167H27.1833L37.1 52.9167H37.2167L46.9 83.7167ZM74.0833 113L46.7833 35.5333H28L0.35 113H17.5L22.9833 97.0167H51.5667L56.4667 113H74.0833ZM109.73 92.2333C109.146 98.4167 104.48 101.8 98.5296 101.8C92.5796 101.8 87.3296 95.7333 87.3296 83.25C87.3296 70.7667 92.5796 66.6833 98.9962 66.6833C104.713 66.6833 109.03 70.1833 109.846 76.1333H125.13C124.196 62.6 114.046 54.0833 99.1129 54.0833C83.0129 54.0833 72.2796 63.0667 72.2796 83.6C72.2796 104.133 83.0129 114.517 98.6462 114.517C112.53 114.517 123.38 105.533 125.013 92.2333H109.73Z" fill="white"/>
<path d="M180.333 67.1562C180.333 70.5684 176.632 72.6989 173.565 71.2025C160.471 64.8131 150.807 64.4952 137.133 71.1615C134.06 72.6598 130.333 70.532 130.333 67.1129V67.1129C130.333 65.3088 131.433 63.6759 133.12 63.0375C149.626 56.7933 160.217 56.7286 177.493 63.0537C179.208 63.6816 180.333 65.33 180.333 67.1562V67.1562Z" fill="white"/>
<path d="M175.969 106.455C166.948 120.769 143.823 120.605 134.757 106.32C132.905 103.401 131.66 100.375 130.975 97.1056C128.245 84.0859 142.046 74.8417 155.349 74.8417V74.8417C168.619 74.8417 182.327 84.0206 179.746 97.0371C179.077 100.412 177.829 103.504 175.969 106.455Z" fill="white"/>
</svg>
