<svg
  width="25"
  height="25"
  viewBox="0 0 25 25"
  fill="none"
  xmlns="http://www.w3.org/2000/svg"
>
  <path
    fill-rule="evenodd"
    clip-rule="evenodd"
    d="M12.093 2.29592C14.353 2.30592 16.513 3.20592 18.093 4.78592C19.683 6.37592 20.573 8.52592 20.563 10.7559V10.8059C20.503 13.8359 18.803 16.6259 16.683 18.8059C15.483 20.0359 14.153 21.1259 12.703 22.0459C12.313 22.3759 11.743 22.3759 11.353 22.0459C9.20299 20.6459 7.30299 18.8859 5.76299 16.8359C4.41299 15.0559 3.64299 12.9159 3.56299 10.6859C3.58299 6.03592 7.40299 2.28592 12.093 2.29592ZM12.093 13.5559C12.803 13.5559 13.483 13.2859 13.983 12.7959C14.503 12.2859 14.794 11.6069 14.794 10.8959C14.794 9.41592 13.583 8.22592 12.093 8.22592C10.603 8.22592 9.40299 9.41592 9.40299 10.8959C9.40299 12.3569 10.583 13.5359 12.063 13.5559H12.093Z"
    fill="#3A5EB4"
  />
</svg>
