<svg
  width="25"
  height="25"
  viewBox="0 0 25 25"
  fill="none"
  xmlns="http://www.w3.org/2000/svg"
>
  <path
    fill-rule="evenodd"
    clip-rule="evenodd"
    d="M17.0025 3.2959C18.3435 3.2959 19.6335 3.8259 20.5825 4.7769C21.5325 5.7259 22.0635 7.0059 22.0635 8.3459V16.2459C22.0635 19.0359 19.7935 21.2959 17.0025 21.2959H7.12348C4.33248 21.2959 2.06348 19.0359 2.06348 16.2459V8.3459C2.06348 5.5559 4.32248 3.2959 7.12348 3.2959H17.0025ZM18.5935 9.8359L18.6735 9.7559C18.9125 9.4659 18.9125 9.0459 18.6625 8.7559C18.5235 8.6069 18.3325 8.5159 18.1335 8.4959C17.9235 8.4849 17.7235 8.5559 17.5725 8.6959L13.0635 12.2959C12.4835 12.7769 11.6525 12.7769 11.0635 12.2959L6.56348 8.6959C6.25248 8.4659 5.82248 8.4959 5.56348 8.7659C5.29348 9.0359 5.26348 9.4659 5.49248 9.7659L5.62348 9.8959L10.1735 13.4459C10.7335 13.8859 11.4125 14.1259 12.1235 14.1259C12.8325 14.1259 13.5235 13.8859 14.0825 13.4459L18.5935 9.8359Z"
    fill="#3A5EB4"
  />
</svg>
