<svg xmlns="http://www.w3.org/2000/svg" width="24" height="25" viewBox="0 0 24 25" fill="none">
  <path
    d="M20 10.3379V3.93789C20 3.37784 20 3.09781 19.891 2.8839C19.7951 2.69574 19.6422 2.54276 19.454 2.44688C19.2401 2.33789 18.9601 2.33789 18.4 2.33789H5.6C5.03995 2.33789 4.75992 2.33789 4.54601 2.44688C4.35785 2.54276 4.20487 2.69574 4.10899 2.8839C4 3.09781 4 3.37784 4 3.93789V10.3379M20 10.3379H4M20 10.3379V10.5379C20 12.218 20 13.0581 19.673 13.6999C19.3854 14.2643 18.9265 14.7233 18.362 15.0109C17.7202 15.3379 16.8802 15.3379 15.2 15.3379H8.8C7.11984 15.3379 6.27976 15.3379 5.63803 15.0109C5.07354 14.7233 4.6146 14.2643 4.32698 13.6999C4 13.0581 4 12.218 4 10.5379V10.3379M14.5 15.3379V19.8379C14.5 21.2186 13.3807 22.3379 12 22.3379C10.6193 22.3379 9.5 21.2186 9.5 19.8379V15.3379"
    stroke="#192A52" stroke-width="2" stroke-linecap="round" stroke-linejoin="round" />
</svg>
