<svg width="49" height="49" viewBox="0 0 49 49" fill="none" xmlns="http://www.w3.org/2000/svg">
<path d="M34.8335 11.0563H40.8335V17.0563H34.8335V11.0563Z" fill="#192A52"/>
<path d="M34.8335 20.0563H40.8335V26.0563H34.8335V20.0563Z" fill="#192A52"/>
<path d="M25.8335 11.0563H31.8335V17.0563H25.8335V11.0563Z" fill="#192A52"/>
<path d="M25.8335 20.0563H31.8335V26.0563H25.8335V20.0563Z" fill="#192A52"/>
<path d="M22.0835 39.5563C23.3261 39.5563 24.3335 38.5489 24.3335 37.3063C24.3335 36.0636 23.3261 35.0563 22.0835 35.0563C20.8409 35.0563 19.8335 36.0636 19.8335 37.3063C19.8335 38.5489 20.8409 39.5563 22.0835 39.5563Z" fill="#192A52"/>
<path d="M31.8335 45.5563H12.3335C11.5381 45.5555 10.7755 45.2392 10.2131 44.6767C9.65062 44.1143 9.33429 43.3517 9.3335 42.5563V6.55627C9.33429 5.76087 9.65062 4.99827 10.2131 4.43583C10.7755 3.87339 11.5381 3.55707 12.3335 3.55627H31.8335V6.55627H12.3335V42.5563H31.8335V30.5563H34.8335V42.5563C34.8327 43.3517 34.5164 44.1143 33.9539 44.6767C33.3915 45.2392 32.6289 45.5555 31.8335 45.5563Z" fill="#192A52"/>
</svg>
