<svg width="40" height="39" viewBox="0 0 40 39" fill="none" xmlns="http://www.w3.org/2000/svg">
<g id="cloud-settings-svgrepo-com 1">
<g id="roll brush">
<path id="Vector" d="M20.0001 33.1459C22.545 33.1459 24.6081 31.0828 24.6081 28.5379C24.6081 25.993 22.545 23.9299 20.0001 23.9299C17.4552 23.9299 15.3921 25.993 15.3921 28.5379C15.3921 31.0828 17.4552 33.1459 20.0001 33.1459Z" stroke="#192A52" stroke-width="3.072" stroke-miterlimit="10"/>
<path id="Vector_2" d="M20.0001 23.9459V20.8739" stroke="#192A52" stroke-width="3.072" stroke-miterlimit="10"/>
<path id="Vector_3" d="M20.0001 36.2179V33.1459" stroke="#192A52" stroke-width="3.072" stroke-miterlimit="10"/>
<path id="Vector_4" d="M20.0001 23.9459V20.8739" stroke="#192A52" stroke-width="3.072" stroke-miterlimit="10"/>
<path id="Vector_5" d="M20.0001 36.2179V33.1459" stroke="#192A52" stroke-width="3.072" stroke-miterlimit="10"/>
<path id="Vector_6" d="M16 26.2339L13.344 24.6979" stroke="#192A52" stroke-width="3.072" stroke-miterlimit="10"/>
<path id="Vector_7" d="M26.64 32.3779L23.984 30.8419" stroke="#192A52" stroke-width="3.072" stroke-miterlimit="10"/>
<path id="Vector_8" d="M16 26.2339L13.344 24.6979" stroke="#192A52" stroke-width="3.072" stroke-miterlimit="10"/>
<path id="Vector_9" d="M26.64 32.3779L23.984 30.8419" stroke="#192A52" stroke-width="3.072" stroke-miterlimit="10"/>
<path id="Vector_10" d="M23.984 26.2339L26.64 24.6979" stroke="#192A52" stroke-width="3.072" stroke-miterlimit="10"/>
<path id="Vector_11" d="M13.344 32.3779L16 30.8419" stroke="#192A52" stroke-width="3.072" stroke-miterlimit="10"/>
<path id="Vector_12" d="M23.984 26.2339L26.64 24.6979" stroke="#192A52" stroke-width="3.072" stroke-miterlimit="10"/>
<path id="Vector_13" d="M13.344 32.3779L16 30.8419" stroke="#192A52" stroke-width="3.072" stroke-miterlimit="10"/>
<path id="Vector_14" d="M29.2001 28.5379H30.8001C32.3572 28.5374 33.8561 27.9457 34.9937 26.8824C36.1312 25.8191 36.8226 24.3635 36.9281 22.8099C36.936 22.6767 36.936 22.5431 36.9281 22.4099C36.9281 21.6031 36.7691 20.8041 36.4604 20.0587C36.1516 19.3133 35.699 18.636 35.1285 18.0654C34.558 17.4949 33.8807 17.0423 33.1353 16.7336C32.3898 16.4248 31.5909 16.2659 30.7841 16.2659H29.1841V13.1939C29.1757 10.7593 28.2059 8.4265 26.4858 6.70345C24.7657 4.98039 22.4347 4.00654 20.0001 3.9939H19.6481C18.0707 4.05495 16.5363 4.52511 15.1955 5.35821C13.8546 6.19131 12.7535 7.35874 12.0001 8.7459C11.9181 8.87788 11.8485 9.01713 11.7921 9.1619C11.2209 10.4312 10.9108 11.8024 10.8801 13.1939C9.8582 13.1788 8.84368 13.3688 7.89644 13.7524C6.94921 14.136 6.08847 14.7056 5.36508 15.4275C4.64169 16.1494 4.07032 17.009 3.68472 17.9554C3.29912 18.9019 3.10712 19.916 3.12006 20.9379C3.11249 21.0444 3.11249 21.1514 3.12006 21.2579C3.19864 23.2331 4.03896 25.1012 5.46481 26.4704C6.89066 27.8395 8.79127 28.6035 10.7681 28.6019" stroke="#192A52" stroke-width="3.072" stroke-miterlimit="10"/>
</g>
</g>
</svg>
