<svg width="40" height="39" viewBox="0 0 40 39" fill="none" xmlns="http://www.w3.org/2000/svg">
<g id="dev-ops-solid-svgrepo-com 1" clip-path="url(#clip0_2088_391)">
<g id="Layer 2">
<g id="icons Q2">
<path id="Vector" d="M37.5997 19.3379C37.5997 16.7918 36.5882 14.35 34.7879 12.5497C32.9875 10.7493 30.5457 9.73787 27.9997 9.73787C23.8397 9.73787 20.3997 13.0179 18.4797 18.8579C17.0397 23.2579 14.6397 25.7379 11.9997 25.7379C10.3023 25.7379 8.67441 25.0636 7.47417 23.8634C6.27394 22.6631 5.59966 21.0353 5.59966 19.3379C5.59966 17.6405 6.27394 16.0126 7.47417 14.8124C8.67441 13.6122 10.3023 12.9379 11.9997 12.9379H12.9597L11.6797 14.2179C11.5057 14.3718 11.3694 14.5636 11.2812 14.7784C11.1929 14.9932 11.155 15.2254 11.1705 15.4572C11.1859 15.6889 11.2543 15.914 11.3703 16.1152C11.4863 16.3164 11.6469 16.4884 11.8397 16.6179C12.1607 16.8503 12.5536 16.9617 12.9489 16.9324C13.3442 16.9031 13.7163 16.7351 13.9997 16.4579L17.9197 12.4579C18.0748 12.3155 18.1987 12.1424 18.2835 11.9496C18.3683 11.7568 18.412 11.5485 18.412 11.3379C18.412 11.1273 18.3683 10.919 18.2835 10.7261C18.1987 10.5333 18.0748 10.3603 17.9197 10.2179L13.9997 6.21788C13.7163 5.94069 13.3442 5.7726 12.9489 5.74332C12.5536 5.71404 12.1607 5.82546 11.8397 6.05788C11.6469 6.18737 11.4863 6.35932 11.3703 6.56053C11.2543 6.76174 11.1859 6.98686 11.1705 7.2186C11.155 7.45034 11.1929 7.68254 11.2812 7.89736C11.3694 8.11219 11.5057 8.30394 11.6797 8.45788L12.9597 9.73787H11.9997C9.45358 9.73787 7.01178 10.7493 5.21143 12.5497C3.41108 14.35 2.39966 16.7918 2.39966 19.3379C2.39966 21.884 3.41108 24.3258 5.21143 26.1261C7.01178 27.9265 9.45358 28.9379 11.9997 28.9379C16.1597 28.9379 19.5997 25.6579 21.5197 19.8179C22.9597 15.4179 25.3597 12.9379 27.9997 12.9379C29.697 12.9379 31.3249 13.6122 32.5251 14.8124C33.7254 16.0126 34.3997 17.6405 34.3997 19.3379C34.3997 21.0353 33.7254 22.6631 32.5251 23.8634C31.3249 25.0636 29.697 25.7379 27.9997 25.7379H27.0397L28.3197 24.4579C28.4936 24.3039 28.6299 24.1122 28.7182 23.8974C28.8064 23.6825 28.8443 23.4503 28.8288 23.2186C28.8134 22.9869 28.745 22.7617 28.629 22.5605C28.513 22.3593 28.3525 22.1874 28.1597 22.0579C27.8386 21.8255 27.4457 21.714 27.0504 21.7433C26.6552 21.7726 26.283 21.9407 25.9997 22.2179L22.0797 26.2179C21.9245 26.3603 21.8006 26.5333 21.7158 26.7261C21.631 26.919 21.5873 27.1273 21.5873 27.3379C21.5873 27.5485 21.631 27.7568 21.7158 27.9496C21.8006 28.1424 21.9245 28.3155 22.0797 28.4579L25.9997 32.4579C26.283 32.7351 26.6552 32.9031 27.0504 32.9324C27.4457 32.9617 27.8386 32.8503 28.1597 32.6179C28.3525 32.4884 28.513 32.3164 28.629 32.1152C28.745 31.914 28.8134 31.6889 28.8288 31.4572C28.8443 31.2254 28.8064 30.9932 28.7182 30.7784C28.6299 30.5636 28.4936 30.3718 28.3197 30.2179L27.0397 28.9379H27.9997C30.5457 28.9379 32.9875 27.9265 34.7879 26.1261C36.5882 24.3258 37.5997 21.884 37.5997 19.3379Z" fill="#192A52"/>
</g>
</g>
</g>
<defs>
<clipPath id="clip0_2088_391">
<rect width="38.4" height="38.4" fill="white" transform="translate(0.799988 0.137894)"/>
</clipPath>
</defs>
</svg>
