<svg xmlns="http://www.w3.org/2000/svg" width="24" height="25" viewBox="0 0 24 25" fill="none">
  <path
    d="M14.2495 2.33789H8.49395C8.31447 2.33789 8.22473 2.33789 8.14551 2.36522C8.07544 2.38938 8.01163 2.42882 7.95868 2.48068C7.89881 2.53932 7.85868 2.61959 7.77841 2.78012L3.57841 11.1801C3.38673 11.5635 3.29089 11.7552 3.31391 11.911C3.33401 12.047 3.40927 12.1688 3.52197 12.2476C3.65104 12.3379 3.86534 12.3379 4.29395 12.3379H10.4995L7.49953 22.3379L19.6926 9.6932C20.104 9.26659 20.3097 9.05329 20.3217 8.87077C20.3321 8.71235 20.2667 8.55838 20.1454 8.45592C20.0057 8.33789 19.7094 8.33789 19.1167 8.33789H11.9995L14.2495 2.33789Z"
    stroke="#192A52" stroke-width="2" stroke-linecap="round" stroke-linejoin="round" />
</svg>
