<svg width="40" height="39" viewBox="0 0 40 39" fill="none" xmlns="http://www.w3.org/2000/svg">
<g id="tools-solid-svgrepo-com 1">
<path id="Vector" d="M7.09998 3.4379L6.42498 4.0754L4.73748 5.7629L4.09998 6.4379L4.58748 7.2254L7.09998 11.4254L7.43748 12.0254H10.9625L15.7625 16.7879C11.4734 21.0957 6.01716 26.5707 5.82498 26.7629C3.94529 28.6426 3.9406 31.7223 5.86248 33.5129C7.73748 35.3645 10.7937 35.4113 12.575 33.5129C12.589 33.4988 12.5984 33.4895 12.6125 33.4754L20 26.0504L27.425 33.5129L27.5375 33.5879C29.4219 35.3645 32.4172 35.3879 34.175 33.5129V33.4754H34.2125C36.05 31.5957 36.0687 28.5395 34.175 26.7629L34.1375 26.7254L27.875 20.5004C32.089 20.1066 35.389 16.5488 35.45 12.2504H35.4875C35.4922 12.227 35.4875 12.1988 35.4875 12.1754C35.4875 12.1613 35.4875 12.152 35.4875 12.1379C35.6047 10.7504 35.3047 9.42383 34.5875 8.2754L33.7625 7.0004L28.175 12.5879L26.4875 10.8254L32.1875 5.1254L30.5375 4.4504C29.5718 4.0379 28.4562 3.7379 27.2 3.7379C22.5875 3.7379 18.8 7.5254 18.8 12.1379C18.8 12.6395 18.9078 13.0754 18.9875 13.5254C18.4625 14.0504 18.0687 14.4816 17.45 15.1004L12.6875 10.3379V6.7754L12.0875 6.4379L7.88748 3.9254L7.09998 3.4379ZM27.2 6.1379C27.3687 6.1379 27.4859 6.23633 27.65 6.2504L23.1125 10.7879L23.9375 11.6504L27.3125 15.1379L28.1375 16.0004L32.9 11.2379C32.9234 11.5145 33.1203 11.716 33.0875 12.0254V12.1379C33.0875 15.4426 30.3922 18.1379 27.0875 18.1379C26.6469 18.1379 26.1125 18.0348 25.5125 17.9129L24.875 17.8004L24.425 18.2504L10.8875 31.8254H10.85V31.8629C9.99685 32.7957 8.50623 32.8191 7.51248 31.8254V31.7879H7.47498C6.54216 30.9348 6.51873 29.4441 7.51248 28.4504C7.96716 27.9957 16.775 19.1129 21.0875 14.8004L21.575 14.3129L21.3875 13.6379C21.289 13.2488 21.2 12.5785 21.2 12.1379C21.2 8.83321 23.8953 6.1379 27.2 6.1379ZM7.47498 6.4379L10.2875 8.1629V9.3629L10.025 9.6254H8.82498L7.09998 6.8129L7.47498 6.4379ZM25.025 21.0254L32.4875 28.4504V28.4879H32.525C33.4578 29.341 33.4812 30.8316 32.4875 31.8254H32.45V31.8629C31.5968 32.7957 30.1062 32.8191 29.1125 31.8254L21.6875 24.3629L25.025 21.0254Z" fill="#192A52"/>
</g>
</svg>
