<svg width="40" height="39" viewBox="0 0 40 39" fill="none" xmlns="http://www.w3.org/2000/svg">
<g id="fluent:paint-brush-16-regular">
<g id="Group">
<path id="Vector" d="M10.4001 2.54269C10.0818 2.54269 9.77659 2.66912 9.55155 2.89417C9.3265 3.11921 9.20007 3.42443 9.20007 3.74269V20.5379C9.20007 21.8109 9.70579 23.0318 10.606 23.932C11.5061 24.8322 12.727 25.3379 14.0001 25.3379H15.2001V31.3379C15.2001 31.9679 15.3242 32.5918 15.5653 33.1739C15.8064 33.7559 16.1598 34.2848 16.6053 34.7303C17.0508 35.1758 17.5796 35.5292 18.1617 35.7703C18.7438 36.0114 19.3676 36.1355 19.9977 36.1355C20.6277 36.1355 21.2516 36.0114 21.8336 35.7703C22.4157 35.5292 22.9446 35.1758 23.3901 34.7303C23.8356 34.2848 24.189 33.7559 24.4301 33.1739C24.6712 32.5918 24.7953 31.9679 24.7953 31.3379V25.3379H26.0001C27.2731 25.3379 28.494 24.8322 29.3942 23.932C30.2944 23.0318 30.8001 21.8109 30.8001 20.5379V3.74269C30.8001 3.42443 30.6736 3.11921 30.4486 2.89417C30.2236 2.66912 29.9183 2.54269 29.6001 2.54269H10.4001ZM28.4001 16.9379H11.6001V4.94269H18.8001V8.54749C18.8001 8.86575 18.9265 9.17098 19.1515 9.39602C19.3766 9.62107 19.6818 9.74749 20.0001 9.74749C20.3183 9.74749 20.6236 9.62107 20.8486 9.39602C21.0736 9.17098 21.2001 8.86575 21.2001 8.54749V4.94269H23.6001V10.9331C23.6001 11.2514 23.7265 11.5566 23.9515 11.7816C24.1766 12.0067 24.4818 12.1331 24.8001 12.1331C25.1183 12.1331 25.4236 12.0067 25.6486 11.7816C25.8736 11.5566 26.0001 11.2514 26.0001 10.9331V4.94269H28.4001V16.9379ZM11.6001 20.5379V19.3379H28.4001V20.5379C28.4001 21.1744 28.1472 21.7849 27.6971 22.2349C27.247 22.685 26.6366 22.9379 26.0001 22.9379H23.5953C23.277 22.9379 22.9718 23.0643 22.7467 23.2894C22.5217 23.5144 22.3953 23.8196 22.3953 24.1379V31.3379C22.3953 31.9738 22.1427 32.5836 21.693 33.0333C21.2434 33.4829 20.6336 33.7355 19.9977 33.7355C19.3618 33.7355 18.752 33.4829 18.3023 33.0333C17.8527 32.5836 17.6001 31.9738 17.6001 31.3379V24.1379C17.6001 23.8196 17.4736 23.5144 17.2486 23.2894C17.0236 23.0643 16.7183 22.9379 16.4001 22.9379H14.0001C13.3636 22.9379 12.7531 22.685 12.303 22.2349C11.8529 21.7849 11.6001 21.1744 11.6001 20.5379Z" fill="#192A52"/>
</g>
</g>
</svg>
