<svg width="626" height="250" viewBox="0 0 626 250" fill="none" xmlns="http://www.w3.org/2000/svg">
<mask id="mask0" mask-type="alpha" maskUnits="userSpaceOnUse" x="237" y="0" width="152" height="119">
<path d="M250.37 42.5C301.869 11.5015 337.369 62.9999 267.87 119C325.369 114.5 344.369 45 325.369 30C379.369 35.2 390.202 12.1667 388.869 0C366.868 28 330.369 6.21118 281.87 3.15063C225.481 -0.407768 231.369 37.5 250.37 42.5Z" fill="url(#paint0_linear)"/>
</mask>
<g mask="url(#mask0)">
<path d="M250.37 42.5C301.869 11.5015 337.369 62.9999 267.87 119C325.369 114.5 344.369 45 325.369 30C379.369 35.2 390.202 12.1667 388.869 0C366.868 28 330.369 6.21118 281.87 3.15063C225.481 -0.407768 231.369 37.5 250.37 42.5Z" fill="url(#paint1_linear)"/>
<g filter="url(#filter0_f)">
<path d="M278.466 22.4998C248.866 22.0998 247.133 34.9998 249.966 41.4998C276.766 28.2997 293 29.5 305 46L325.966 28.5L328.966 26C324.466 24.9999 308.066 22.8998 278.466 22.4998Z" fill="#2A5C9B"/>
</g>
<g filter="url(#filter1_f)">
<path d="M269 119C299 95.5001 314 61.5001 303.5 44.5001H306L316 39.0001C316.833 37.8335 318.6 42.3001 319 69.5001C319.4 96.7001 285.833 113.833 269 119Z" fill="#2D5A9E"/>
</g>
</g>
<path d="M41.574 198H52.806L27.378 139.5H25.974L0.624 198H11.856L15.99 188.094H37.362L41.574 198ZM33.306 178.032H20.124L26.754 162.198L33.306 178.032ZM82.4387 198.858C90.1607 198.858 96.9467 196.518 101.861 192.774L97.8047 183.57C93.6707 186.924 88.4447 188.874 83.0627 188.874C72.2207 188.874 65.7467 181.152 65.7467 169.53C65.7467 157.986 72.2207 150.186 83.0627 150.186C88.6787 150.186 93.8267 152.37 97.8047 155.49L102.017 146.364C97.1807 142.62 90.2387 140.202 82.4387 140.202C65.3567 140.202 53.8127 151.902 53.8127 169.53C53.8127 187.158 65.3567 198.858 82.4387 198.858ZM139.646 198.858C156.884 198.858 168.35 187.158 168.35 169.53C168.35 151.902 156.884 140.202 139.646 140.202C122.408 140.202 110.942 151.902 110.942 169.53C110.942 187.158 122.408 198.858 139.646 198.858ZM139.646 188.874C129.584 188.874 122.876 181.074 122.876 169.53C122.876 157.986 129.584 150.186 139.646 150.186C149.708 150.186 156.416 157.986 156.416 169.53C156.416 181.074 149.708 188.874 139.646 188.874ZM224.385 198L210.501 177.252C215.883 173.976 219.081 167.97 219.081 160.326C219.081 148.704 211.515 141.06 200.361 141.06H179.535V198H190.767V179.904H200.439H200.517L211.593 198H224.385ZM190.767 151.122H197.631C204.339 151.122 207.771 154.32 207.771 160.482C207.771 166.644 204.339 169.842 197.787 169.842H190.767V151.122ZM267.442 141.06V173.82L232.264 139.968H231.484V198H242.716V165.942L277.894 199.092H278.674V141.06H267.442ZM333.327 166.8V176.862H344.013V187.314C341.361 188.25 337.851 188.874 334.887 188.874C324.045 188.874 317.571 181.152 317.571 169.53C317.571 157.986 324.045 150.186 334.887 150.186C340.503 150.186 345.651 152.37 349.629 155.49L353.841 146.364C349.005 142.62 342.063 140.202 334.263 140.202C317.181 140.202 305.637 151.902 305.637 169.53C305.637 187.158 317.181 198.858 334.263 198.858C342.219 198.858 350.409 196.518 355.245 193.086V166.8H333.327ZM378.378 187.938V141.06H367.146V198H402.09V187.938H378.378ZM434.964 198.858C452.202 198.858 463.668 187.158 463.668 169.53C463.668 151.902 452.202 140.202 434.964 140.202C417.726 140.202 406.26 151.902 406.26 169.53C406.26 187.158 417.726 198.858 434.964 198.858ZM434.964 188.874C424.902 188.874 418.194 181.074 418.194 169.53C418.194 157.986 424.902 150.186 434.964 150.186C445.026 150.186 451.734 157.986 451.734 169.53C451.734 181.074 445.026 188.874 434.964 188.874ZM508.081 168.36C511.981 165.708 514.789 161.886 514.789 156.894C514.789 147.066 508.003 141.06 498.019 141.06H474.853V198H500.047C510.265 198 517.129 191.448 517.129 181.62C517.129 175.458 513.229 170.856 508.081 168.36ZM486.085 151.122H496.069C500.671 151.122 503.635 154.008 503.635 158.454C503.635 162.744 500.749 165.63 496.225 165.63H486.085V151.122ZM496.849 187.938H486.085V173.274H496.849C501.997 173.274 505.351 176.16 505.351 180.528C505.351 184.974 501.997 187.938 496.849 187.938ZM550.204 198.858C564.322 198.858 573.682 190.278 573.682 177.33V141.06H562.372L562.45 176.706C562.45 183.57 557.614 188.874 550.204 188.874C542.872 188.874 538.036 183.57 538.036 176.706L538.114 141.06H526.726V177.33C526.726 190.278 536.086 198.858 550.204 198.858ZM601.655 198.858C612.497 198.858 621.935 193.554 621.935 182.244C621.935 173.43 616.163 169.53 606.959 165.084C601.343 162.432 597.209 160.95 597.209 156.348C597.209 152.604 599.939 150.42 604.541 150.42C607.817 150.42 612.263 151.668 617.723 154.866L620.375 144.024C614.681 141.45 609.065 140.202 604.307 140.202C592.841 140.202 585.353 146.832 585.353 156.27C585.353 164.928 591.671 168.672 599.861 172.806C605.477 175.692 610.001 177.564 610.001 182.322C610.001 186.69 606.335 188.328 601.889 188.328C596.819 188.328 590.345 186.222 585.899 183.414L582.545 193.32C588.005 196.83 595.103 198.858 601.655 198.858Z" fill="#002353"/>
<path d="M173.81 244.3C176.81 244.3 179.39 243.4 181.28 241.9L179.93 239.05C178.31 240.43 176.24 241.21 173.99 241.21C169.4 241.21 166.55 237.97 166.55 233.05C166.55 228.16 169.4 224.89 173.99 224.89C176.33 224.89 178.4 225.76 179.93 227.05L181.31 224.26C179.45 222.73 176.84 221.8 173.81 221.8C167.27 221.8 162.86 226.3 162.86 233.05C162.86 239.8 167.27 244.3 173.81 244.3ZM207.842 244.3C214.442 244.3 218.822 239.8 218.822 233.05C218.822 226.3 214.442 221.8 207.842 221.8C201.242 221.8 196.862 226.3 196.862 233.05C196.862 239.8 201.242 244.3 207.842 244.3ZM207.842 241.21C203.462 241.21 200.552 237.94 200.552 233.05C200.552 228.16 203.462 224.89 207.842 224.89C212.222 224.89 215.132 228.16 215.132 233.05C215.132 237.94 212.222 241.21 207.842 241.21ZM249.495 222.1V236.44L235.515 221.65H235.215V244H238.695V229.87L252.675 244.45H252.975V222.1H249.495ZM275.798 244.3C279.758 244.3 283.298 242.47 283.298 238.18C283.298 234.79 281.108 233.38 277.568 231.7C275.228 230.56 273.428 229.9 273.428 227.74C273.428 225.88 274.778 224.95 276.908 224.95C278.228 224.95 279.908 225.4 281.858 226.48L282.698 223.18C280.748 222.25 278.678 221.8 276.818 221.8C272.708 221.8 269.738 224.05 269.738 227.74C269.738 231.16 272.258 232.57 275.378 234.1C277.718 235.27 279.638 236.05 279.638 238.18C279.638 240.31 277.838 241.06 275.858 241.06C273.788 241.06 271.358 240.25 269.738 239.23L268.658 242.26C270.608 243.55 273.278 244.3 275.798 244.3ZM308.257 244.3C313.477 244.3 316.957 241 316.957 236.05V222.1H313.477L313.507 235.87C313.507 238.96 311.407 241.21 308.257 241.21C305.137 241.21 303.037 238.96 303.037 235.87L303.067 222.1H299.557V236.05C299.557 241 303.037 244.3 308.257 244.3ZM337.479 240.88V222.1H333.999V244H347.079V240.88H337.479ZM364.461 244H367.941V225.22H374.841V222.1H357.561V225.22H364.461V244ZM390.225 244H393.705V222.1H390.225V244ZM425.03 222.1V236.44L411.05 221.65H410.75V244H414.23V229.87L428.21 244.45H428.51V222.1H425.03ZM455.713 232.51V235.6H460.333V240.4C459.163 240.88 457.513 241.21 456.013 241.21C451.423 241.21 448.573 237.97 448.573 233.05C448.573 228.16 451.423 224.89 456.013 224.89C458.353 224.89 460.423 225.76 461.953 227.05L463.333 224.26C461.473 222.73 458.863 221.8 455.833 221.8C449.293 221.8 444.883 226.3 444.883 233.05C444.883 239.8 449.293 244.3 455.833 244.3C458.923 244.3 461.983 243.4 463.813 242.11V232.51H455.713Z" fill="#004F94"/>
<defs>
<filter id="filter0_f" x="229" y="2.49072" width="119.966" height="63.5093" filterUnits="userSpaceOnUse" color-interpolation-filters="sRGB">
<feFlood flood-opacity="0" result="BackgroundImageFix"/>
<feBlend mode="normal" in="SourceGraphic" in2="BackgroundImageFix" result="shape"/>
<feGaussianBlur stdDeviation="10" result="effect1_foregroundBlur"/>
</filter>
<filter id="filter1_f" x="249" y="18.8345" width="90.0035" height="120.166" filterUnits="userSpaceOnUse" color-interpolation-filters="sRGB">
<feFlood flood-opacity="0" result="BackgroundImageFix"/>
<feBlend mode="normal" in="SourceGraphic" in2="BackgroundImageFix" result="shape"/>
<feGaussianBlur stdDeviation="10" result="effect1_foregroundBlur"/>
</filter>
<linearGradient id="paint0_linear" x1="312.987" y1="0" x2="312.987" y2="119" gradientUnits="userSpaceOnUse">
<stop stop-color="#292765"/>
<stop offset="1" stop-color="#4E6C9C"/>
</linearGradient>
<linearGradient id="paint1_linear" x1="312.987" y1="0" x2="312.987" y2="119" gradientUnits="userSpaceOnUse">
<stop stop-color="#292765"/>
<stop offset="1" stop-color="#4E6C9C"/>
</linearGradient>
</defs>
</svg>
