<svg width="49" height="49" viewBox="0 0 49 49" fill="none" xmlns="http://www.w3.org/2000/svg">
<path d="M39.6665 3.55627H45.6665V9.55627H39.6665V3.55627Z" fill="#192A52"/>
<path d="M39.6665 12.5563H45.6665V18.5563H39.6665V12.5563Z" fill="#192A52"/>
<path d="M30.6665 3.55627H36.6665V9.55627H30.6665V3.55627Z" fill="#192A52"/>
<path d="M30.6665 12.5563H36.6665V18.5563H30.6665V12.5563Z" fill="#192A52"/>
<path d="M42.6665 24.5563V33.5563H6.6665V9.55627H24.6665V6.55627H6.6665C5.87085 6.55627 5.10779 6.87234 4.54518 7.43495C3.98257 7.99756 3.6665 8.76062 3.6665 9.55627V33.5563C3.6665 34.3519 3.98257 35.115 4.54518 35.6776C5.10779 36.2402 5.87085 36.5563 6.6665 36.5563H18.6665V42.5563H12.6665V45.5563H36.6665V42.5563H30.6665V36.5563H42.6665C43.4622 36.5563 44.2252 36.2402 44.7878 35.6776C45.3504 35.115 45.6665 34.3519 45.6665 33.5563V24.5563H42.6665ZM27.6665 42.5563H21.6665V36.5563H27.6665V42.5563Z" fill="#192A52"/>
</svg>
