<svg width="48" height="49" viewBox="0 0 48 49" fill="none" xmlns="http://www.w3.org/2000/svg">
<path d="M12 3.56226C11.6022 3.56226 11.2206 3.72029 10.9393 4.0016C10.658 4.2829 10.5 4.66443 10.5 5.06226V26.0563C10.5 27.6476 11.1321 29.1737 12.2574 30.2989C13.3826 31.4241 14.9087 32.0563 16.5 32.0563H18V39.5563C18 40.3438 18.1551 41.1236 18.4565 41.8512C18.7579 42.5788 19.1996 43.2399 19.7565 43.7968C20.3134 44.3536 20.9745 44.7954 21.702 45.0968C22.4296 45.3981 23.2095 45.5533 23.997 45.5533C24.7845 45.5533 25.5644 45.3981 26.292 45.0968C27.0195 44.7954 27.6806 44.3536 28.2375 43.7968C28.7944 43.2399 29.2361 42.5788 29.5375 41.8512C29.8389 41.1236 29.994 40.3438 29.994 39.5563V32.0563H31.5C33.0913 32.0563 34.6174 31.4241 35.7426 30.2989C36.8679 29.1737 37.5 27.6476 37.5 26.0563V5.06226C37.5 4.66443 37.342 4.2829 37.0607 4.0016C36.7794 3.72029 36.3978 3.56226 36 3.56226H12ZM34.5 21.5563H13.5V6.56226H22.5V11.0683C22.5 11.4661 22.658 11.8476 22.9393 12.1289C23.2206 12.4102 23.6022 12.5683 24 12.5683C24.3978 12.5683 24.7794 12.4102 25.0607 12.1289C25.342 11.8476 25.5 11.4661 25.5 11.0683V6.56226H28.5V14.0503C28.5 14.4481 28.658 14.8296 28.9393 15.1109C29.2206 15.3922 29.6022 15.5503 30 15.5503C30.3978 15.5503 30.7794 15.3922 31.0607 15.1109C31.342 14.8296 31.5 14.4481 31.5 14.0503V6.56226H34.5V21.5563ZM13.5 26.0563V24.5563H34.5V26.0563C34.5 26.8519 34.1839 27.615 33.6213 28.1776C33.0587 28.7402 32.2956 29.0563 31.5 29.0563H28.494C28.0962 29.0563 27.7146 29.2143 27.4333 29.4956C27.152 29.7769 26.994 30.1584 26.994 30.5563V39.5563C26.994 40.3511 26.6782 41.1134 26.1162 41.6755C25.5542 42.2375 24.7919 42.5533 23.997 42.5533C23.2021 42.5533 22.4398 42.2375 21.8778 41.6755C21.3158 41.1134 21 40.3511 21 39.5563V30.5563C21 30.1584 20.842 29.7769 20.5607 29.4956C20.2794 29.2143 19.8978 29.0563 19.5 29.0563H16.5C15.7044 29.0563 14.9413 28.7402 14.3787 28.1776C13.8161 27.615 13.5 26.8519 13.5 26.0563Z" fill="#192A52"/>
</svg>
