<svg width="32" height="33" viewBox="0 0 32 33" fill="none" xmlns="http://www.w3.org/2000/svg">
<path opacity="0.1" fill-rule="evenodd" clip-rule="evenodd" d="M0 16.2959C0 7.45934 7.16344 0.295898 16 0.295898C24.8366 0.295898 32 7.45934 32 16.2959C32 25.1325 24.8366 32.2959 16 32.2959C7.16344 32.2959 0 25.1325 0 16.2959Z" fill="#0B0D17"/>
<path fill-rule="evenodd" clip-rule="evenodd" d="M24.5335 16.2842C24.5335 16.8613 24.4747 17.4376 24.3593 17.9993C24.2468 18.5477 24.0801 19.0861 23.8618 19.6008C23.6485 20.1064 23.3839 20.5936 23.0747 21.048C22.7701 21.4995 22.4192 21.923 22.0338 22.3092C21.6475 22.6936 21.2225 23.0435 20.7712 23.3494C20.3154 23.6564 19.8275 23.9206 19.3216 24.135C18.8061 24.3521 18.2665 24.5186 17.7186 24.6309C17.1561 24.7466 16.5777 24.8057 15.9997 24.8057C15.4214 24.8057 14.843 24.7466 14.2813 24.6309C13.7326 24.5186 13.1929 24.3521 12.6779 24.135C12.1721 23.9206 11.6837 23.6564 11.2278 23.3494C10.7766 23.0435 10.3516 22.6936 9.96611 22.3092C9.58027 21.923 9.2294 21.4995 8.92439 21.048C8.61687 20.5936 8.35184 20.1064 8.13768 19.6008C7.9193 19.0861 7.75224 18.5477 7.63931 17.9993C7.52515 17.4376 7.4668 16.8613 7.4668 16.2842C7.4668 15.7067 7.52511 15.1291 7.63934 14.5686C7.75227 14.0202 7.91934 13.481 8.13771 12.9671C8.35187 12.4612 8.6169 11.9735 8.92442 11.5191C9.22943 11.0673 9.5803 10.6445 9.96614 10.258C10.3516 9.87348 10.7766 9.52442 11.2279 9.21902C11.6837 8.91068 12.1721 8.64649 12.6779 8.43177C13.193 8.21412 13.7326 8.04729 14.2814 7.93579C14.8431 7.82096 15.4214 7.7627 15.9998 7.7627C16.5777 7.7627 17.1561 7.82096 17.7186 7.93579C18.2665 8.04732 18.8061 8.21415 19.3216 8.43177C19.8275 8.64646 20.3154 8.91068 20.7713 9.21902C21.2225 9.52442 21.6476 9.87348 22.0338 10.258C22.4193 10.6445 22.7701 11.0673 23.0747 11.5191C23.3839 11.9735 23.6485 12.4612 23.8618 12.9671C24.0801 13.481 24.2468 14.0202 24.3593 14.5686C24.4747 15.1291 24.5335 15.7067 24.5335 16.2842ZM12.8904 9.70208C10.8582 10.6603 9.34143 12.5302 8.86848 14.7838C9.0606 14.7854 12.0974 14.8237 15.5963 13.8954C14.335 11.6577 12.9875 9.83151 12.8904 9.70208ZM16.2001 15.016C12.4479 16.1377 8.84724 16.057 8.71808 16.052C8.71597 16.1302 8.71223 16.2059 8.71223 16.2842C8.71223 18.1536 9.41851 19.8579 10.5794 21.1466C10.5769 21.1428 12.5712 17.6098 16.5039 16.34C16.5989 16.3083 16.6956 16.28 16.7914 16.2526C16.6085 15.839 16.4089 15.4246 16.2001 15.016ZM20.8125 10.8226C19.5295 9.69291 17.8448 9.00766 15.9997 9.00766C15.4076 9.00766 14.833 9.07923 14.2825 9.21154C14.3917 9.35802 15.7605 11.1713 17.0068 13.4564C19.7566 12.4271 20.7945 10.8492 20.8125 10.8226ZM17.2882 17.4584C17.2719 17.4638 17.2557 17.4684 17.2398 17.4742C12.9401 18.971 11.536 21.9874 11.5208 22.0204C12.7579 22.9811 14.3097 23.5607 15.9998 23.5607C17.009 23.5607 17.9703 23.3555 18.8449 22.984C18.737 22.3482 18.3136 20.1197 17.2882 17.4584ZM20.072 22.3191C21.7083 21.2165 22.8705 19.4656 23.1946 17.4375C23.0446 17.3893 21.0058 16.7448 18.6536 17.1213C19.6095 19.7444 19.9978 21.8806 20.072 22.3191ZM17.5678 14.5408C17.7369 14.8878 17.9007 15.241 18.0519 15.596C18.1057 15.7233 18.1582 15.8481 18.2095 15.9729C20.7129 15.6584 23.1793 16.1876 23.2847 16.2092C23.2681 14.4842 22.6501 12.9009 21.6276 11.6615C21.6138 11.681 20.445 13.3674 17.5678 14.5408Z" fill="#969BAB"/>
</svg>
