<svg width="32" height="33" viewBox="0 0 32 33" fill="none" xmlns="http://www.w3.org/2000/svg">
<path opacity="0.1" fill-rule="evenodd" clip-rule="evenodd" d="M0 16.2959C0 7.45934 7.16344 0.295898 16 0.295898C24.8366 0.295898 32 7.45934 32 16.2959C32 25.1325 24.8366 32.2959 16 32.2959C7.16344 32.2959 0 25.1325 0 16.2959Z" fill="#0B0D17"/>
<path fill-rule="evenodd" clip-rule="evenodd" d="M16.0009 7.7627C13.6834 7.7627 13.3925 7.77283 12.4823 7.81425C11.5739 7.85585 10.9538 7.99968 10.4112 8.2107C9.84993 8.42866 9.37384 8.72022 8.89952 9.19471C8.42485 9.66903 8.13329 10.1451 7.91462 10.7062C7.70307 11.249 7.55906 11.8692 7.51818 12.7773C7.47746 13.6876 7.4668 13.9786 7.4668 16.2961C7.4668 18.6137 7.47711 18.9036 7.51835 19.8138C7.56013 20.7223 7.70395 21.3424 7.9148 21.885C8.13294 22.4462 8.4245 22.9223 8.89899 23.3966C9.37313 23.8713 9.84922 24.1636 10.4101 24.3815C10.9531 24.5926 11.5733 24.7364 12.4816 24.778C13.3918 24.8194 13.6825 24.8295 15.9999 24.8295C18.3176 24.8295 18.6075 24.8194 19.5178 24.778C20.4262 24.7364 21.047 24.5926 21.59 24.3815C22.151 24.1636 22.6264 23.8713 23.1006 23.3966C23.5752 22.9223 23.8668 22.4462 24.0855 21.8852C24.2952 21.3424 24.4392 20.7221 24.4819 19.814C24.5228 18.9038 24.5335 18.6137 24.5335 16.2961C24.5335 13.9786 24.5228 13.6877 24.4819 12.7775C24.4392 11.869 24.2952 11.249 24.0855 10.7064C23.8668 10.1451 23.5752 9.66903 23.1006 9.19471C22.6259 8.72004 22.1512 8.42848 21.5894 8.2107C21.0454 7.99968 20.425 7.85585 19.5165 7.81425C18.6063 7.77283 18.3165 7.7627 15.9983 7.7627H16.0009ZM15.2354 9.30047C15.4626 9.30011 15.7161 9.30047 16.0009 9.30047C18.2793 9.30047 18.5494 9.30864 19.4491 9.34953C20.2811 9.38758 20.7327 9.5266 21.0335 9.6434C21.4317 9.79807 21.7156 9.98296 22.0141 10.2816C22.3128 10.5803 22.4977 10.8647 22.6527 11.263C22.7695 11.5634 22.9087 12.015 22.9466 12.847C22.9875 13.7466 22.9963 14.0168 22.9963 16.2941C22.9963 18.5715 22.9875 18.8417 22.9466 19.7413C22.9085 20.5733 22.7695 21.0249 22.6527 21.3253C22.498 21.7235 22.3128 22.0071 22.0141 22.3056C21.7154 22.6042 21.4319 22.7891 21.0335 22.9438C20.733 23.0611 20.2811 23.1998 19.4491 23.2379C18.5495 23.2787 18.2793 23.2876 16.0009 23.2876C13.7223 23.2876 13.4522 23.2787 12.5527 23.2379C11.7207 23.1995 11.2691 23.0604 10.9681 22.9436C10.5699 22.789 10.2855 22.6041 9.98679 22.3054C9.68812 22.0067 9.50323 21.723 9.3482 21.3246C9.2314 21.0241 9.0922 20.5726 9.05433 19.7406C9.01344 18.841 9.00527 18.5708 9.00527 16.292C9.00527 14.0132 9.01344 13.7444 9.05433 12.8449C9.09238 12.0128 9.2314 11.5613 9.3482 11.2605C9.50287 10.8623 9.68812 10.5778 9.98679 10.2791C10.2855 9.98047 10.5699 9.79558 10.9681 9.64056C11.2689 9.52322 11.7207 9.38455 12.5527 9.34633C13.3399 9.31078 13.645 9.30011 15.2354 9.29833V9.30047ZM20.556 10.7174C19.9906 10.7174 19.532 11.1755 19.532 11.741C19.532 12.3064 19.9906 12.765 20.556 12.765C21.1213 12.765 21.58 12.3064 21.58 11.741C21.58 11.1757 21.1213 10.7174 20.556 10.7174ZM16.0009 11.9138C13.5808 11.9138 11.6187 13.876 11.6187 16.2961C11.6187 18.7162 13.5808 20.6775 16.0009 20.6775C18.4211 20.6775 20.3825 18.7162 20.3825 16.2961C20.3825 13.876 18.4211 11.9138 16.0009 11.9138ZM16.0009 13.4516C17.5718 13.4516 18.8454 14.7251 18.8454 16.2961C18.8454 17.867 17.5718 19.1406 16.0009 19.1406C14.4299 19.1406 13.1564 17.867 13.1564 16.2961C13.1564 14.7251 14.4299 13.4516 16.0009 13.4516Z" fill="#969BAB"/>
</svg>
