<svg width="32" height="33" viewBox="0 0 32 33" fill="none" xmlns="http://www.w3.org/2000/svg">
<circle opacity="0.1" cx="16" cy="16.2959" r="16" fill="#0B0D17"/>
<path d="M16.0001 4.2959C9.3735 4.2959 4 9.80437 4 16.5997C4 22.0358 7.43839 26.6478 12.2064 28.2748C12.8061 28.3886 13.0263 28.0078 13.0263 27.6829C13.0263 27.3895 13.0152 26.4203 13.01 25.3922C9.67157 26.1364 8.96712 23.9405 8.96712 23.9405C8.42125 22.5183 7.63473 22.1402 7.63473 22.1402C6.54596 21.3765 7.7168 21.3922 7.7168 21.3922C8.92181 21.479 9.55632 22.6601 9.55632 22.6601C10.6266 24.5411 12.3636 23.9973 13.0484 23.6829C13.1561 22.8877 13.4671 22.3449 13.8102 22.0377C11.1449 21.7266 8.34295 20.6716 8.34295 15.9571C8.34295 14.6138 8.81172 13.5162 9.57937 12.6546C9.45477 12.3447 9.04402 11.0933 9.69562 9.39851C9.69562 9.39851 10.7033 9.06783 12.9965 10.6597C13.9537 10.3871 14.9803 10.2504 16.0001 10.2457C17.0199 10.2504 18.0473 10.3871 19.0063 10.6597C21.2967 9.06783 22.303 9.39851 22.303 9.39851C22.9562 11.0933 22.5452 12.3447 22.4206 12.6546C23.1901 13.5162 23.6557 14.6138 23.6557 15.9571C23.6557 20.6828 20.8484 21.7233 18.1762 22.0279C18.6067 22.4097 18.9902 23.1585 18.9902 24.3064C18.9902 25.9527 18.9763 27.2776 18.9763 27.6829C18.9763 28.0103 19.1923 28.3939 19.8006 28.2731C24.566 26.6444 28 22.034 28 16.5997C28 9.80437 22.6273 4.2959 16.0001 4.2959Z" fill="#969BAB"/>
<path d="M8.58043 21.8771C8.55405 21.9376 8.46043 21.9557 8.37514 21.9142C8.28827 21.8744 8.23947 21.7919 8.26764 21.7312C8.29342 21.6689 8.38724 21.6515 8.47392 21.6933C8.56099 21.733 8.61058 21.8163 8.58043 21.8771Z" fill="#969BAB"/>
<path d="M9.06559 22.4274C9.00846 22.4812 8.89679 22.4562 8.82103 22.3711C8.74268 22.2862 8.728 22.1726 8.78592 22.1179C8.84483 22.0641 8.95313 22.0893 9.03167 22.1742C9.11002 22.2601 9.12529 22.3729 9.06559 22.4274Z" fill="#969BAB"/>
<path d="M9.53784 23.129C9.46445 23.1809 9.34445 23.1323 9.27027 23.0239C9.19688 22.9156 9.19688 22.7857 9.27186 22.7336C9.34624 22.6816 9.46445 22.7284 9.53963 22.8359C9.61282 22.9461 9.61282 23.076 9.53784 23.129Z" fill="#969BAB"/>
<path d="M10.1848 23.8069C10.1192 23.8805 9.97936 23.8607 9.87701 23.7603C9.77229 23.662 9.74313 23.5226 9.80898 23.449C9.87543 23.3751 10.0161 23.3959 10.1192 23.4956C10.2231 23.5936 10.2549 23.734 10.1848 23.8069Z" fill="#969BAB"/>
<path d="M11.0774 24.2005C11.0485 24.2959 10.9138 24.3392 10.7781 24.2987C10.6426 24.2569 10.554 24.1452 10.5813 24.0487C10.6095 23.9527 10.7448 23.9075 10.8814 23.9509C11.0167 23.9925 11.1056 24.1034 11.0774 24.2005Z" fill="#969BAB"/>
<path d="M12.0576 24.2735C12.061 24.3739 11.946 24.4573 11.8036 24.4591C11.6604 24.4623 11.5445 24.381 11.5429 24.2822C11.5429 24.1807 11.6554 24.0982 11.7986 24.0958C11.941 24.0929 12.0576 24.1736 12.0576 24.2735Z" fill="#969BAB"/>
<path d="M12.9699 24.1155C12.9869 24.2136 12.8879 24.3142 12.7465 24.3411C12.6075 24.3669 12.4787 24.3064 12.4611 24.2091C12.4438 24.1087 12.5446 24.008 12.6834 23.982C12.8251 23.957 12.9518 24.0159 12.9699 24.1155Z" fill="#969BAB"/>
</svg>
