<svg width="32" height="33" viewBox="0 0 32 33" fill="none" xmlns="http://www.w3.org/2000/svg">
<path opacity="0.1" fill-rule="evenodd" clip-rule="evenodd" d="M0 16.2959C0 7.45934 7.16344 0.295898 16 0.295898C24.8366 0.295898 32 7.45934 32 16.2959C32 25.1325 24.8366 32.2959 16 32.2959C7.16344 32.2959 0 25.1325 0 16.2959Z" fill="white"/>
<path fill-rule="evenodd" clip-rule="evenodd" d="M16.0009 7.76257C13.6834 7.76257 13.3925 7.77271 12.4823 7.81413C11.5739 7.85573 10.9538 7.99955 10.4112 8.21058C9.84993 8.42854 9.37384 8.72009 8.89952 9.19459C8.42485 9.6689 8.13329 10.145 7.91462 10.7061C7.70307 11.2488 7.55906 11.8691 7.51818 12.7772C7.47746 13.6874 7.4668 13.9785 7.4668 16.296C7.4668 18.6135 7.47711 18.9035 7.51835 19.8137C7.56013 20.7222 7.70395 21.3423 7.9148 21.8849C8.13294 22.4461 8.4245 22.9222 8.89899 23.3965C9.37313 23.8712 9.84922 24.1635 10.4101 24.3814C10.9531 24.5924 11.5733 24.7363 12.4816 24.7779C13.3918 24.8193 13.6825 24.8294 15.9999 24.8294C18.3176 24.8294 18.6075 24.8193 19.5178 24.7779C20.4262 24.7363 21.047 24.5924 21.59 24.3814C22.151 24.1635 22.6264 23.8712 23.1006 23.3965C23.5752 22.9222 23.8668 22.4461 24.0855 21.885C24.2952 21.3423 24.4392 20.722 24.4819 19.8139C24.5228 18.9037 24.5335 18.6135 24.5335 16.296C24.5335 13.9785 24.5228 13.6876 24.4819 12.7774C24.4392 11.8689 24.2952 11.2488 24.0855 10.7062C23.8668 10.145 23.5752 9.6689 23.1006 9.19459C22.6259 8.71992 22.1512 8.42836 21.5894 8.21058C21.0454 7.99955 20.425 7.85573 19.5165 7.81413C18.6063 7.77271 18.3165 7.76257 15.9983 7.76257H16.0009ZM15.2354 9.30034C15.4626 9.29999 15.7161 9.30034 16.0009 9.30034C18.2793 9.30034 18.5494 9.30852 19.4491 9.34941C20.2811 9.38745 20.7327 9.52648 21.0335 9.64328C21.4317 9.79795 21.7156 9.98284 22.0141 10.2815C22.3128 10.5802 22.4977 10.8646 22.6527 11.2629C22.7695 11.5633 22.9087 12.0149 22.9466 12.8469C22.9875 13.7464 22.9963 14.0167 22.9963 16.294C22.9963 18.5714 22.9875 18.8416 22.9466 19.7412C22.9085 20.5732 22.7695 21.0247 22.6527 21.3252C22.498 21.7234 22.3128 22.007 22.0141 22.3055C21.7154 22.6041 21.4319 22.789 21.0335 22.9437C20.733 23.061 20.2811 23.1997 19.4491 23.2377C18.5495 23.2786 18.2793 23.2875 16.0009 23.2875C13.7223 23.2875 13.4522 23.2786 12.5527 23.2377C11.7207 23.1993 11.2691 23.0603 10.9681 22.9435C10.5699 22.7888 10.2855 22.6039 9.98679 22.3053C9.68812 22.0066 9.50323 21.7229 9.3482 21.3245C9.2314 21.024 9.0922 20.5725 9.05433 19.7405C9.01344 18.8409 9.00527 18.5707 9.00527 16.2919C9.00527 14.0131 9.01344 13.7443 9.05433 12.8447C9.09238 12.0127 9.2314 11.5612 9.3482 11.2604C9.50287 10.8621 9.68812 10.5777 9.98679 10.279C10.2855 9.98035 10.5699 9.79546 10.9681 9.64044C11.2689 9.5231 11.7207 9.38443 12.5527 9.34621C13.3399 9.31065 13.645 9.29999 15.2354 9.29821V9.30034ZM20.556 10.7173C19.9906 10.7173 19.532 11.1754 19.532 11.7409C19.532 12.3062 19.9906 12.7649 20.556 12.7649C21.1213 12.7649 21.58 12.3062 21.58 11.7409C21.58 11.1756 21.1213 10.7173 20.556 10.7173ZM16.0009 11.9137C13.5808 11.9137 11.6187 13.8759 11.6187 16.296C11.6187 18.7161 13.5808 20.6774 16.0009 20.6774C18.4211 20.6774 20.3825 18.7161 20.3825 16.296C20.3825 13.8759 18.4211 11.9137 16.0009 11.9137ZM16.0009 13.4515C17.5718 13.4515 18.8454 14.7249 18.8454 16.296C18.8454 17.8668 17.5718 19.1404 16.0009 19.1404C14.4299 19.1404 13.1564 17.8668 13.1564 16.296C13.1564 14.7249 14.4299 13.4515 16.0009 13.4515Z" fill="white"/>
</svg>
