<svg width="32" height="33" viewBox="0 0 32 33" fill="none" xmlns="http://www.w3.org/2000/svg">
<path opacity="0.1" fill-rule="evenodd" clip-rule="evenodd" d="M0 16.2959C0 7.45934 7.16344 0.295898 16 0.295898C24.8366 0.295898 32 7.45934 32 16.2959C32 25.1325 24.8366 32.2959 16 32.2959C7.16344 32.2959 0 25.1325 0 16.2959Z" fill="white"/>
<path fill-rule="evenodd" clip-rule="evenodd" d="M15.5208 13.3009L15.5544 13.8545L14.9948 13.7867C12.9579 13.5268 11.1784 12.6456 9.66756 11.1654L8.92891 10.431L8.73865 10.9733C8.33575 12.1823 8.59316 13.4591 9.43253 14.3178C9.8802 14.7923 9.77948 14.8601 9.00725 14.5776C8.73865 14.4872 8.50363 14.4194 8.48124 14.4533C8.4029 14.5324 8.6715 15.5606 8.88414 15.9674C9.17513 16.5323 9.76828 17.0859 10.4174 17.4136L10.9658 17.6735L10.3167 17.6848C9.68994 17.6848 9.66756 17.6961 9.73471 17.9333C9.95854 18.6678 10.8427 19.4474 11.8276 19.7863L12.5214 20.0236L11.9171 20.3852C11.0218 20.9049 9.96973 21.1987 8.91772 21.2213C8.41409 21.2326 8 21.2778 8 21.3117C8 21.4246 9.36538 22.0574 10.16 22.3059C12.5438 23.0404 15.3753 22.724 17.5017 21.4698C19.0126 20.5772 20.5235 18.8033 21.2286 17.0859C21.6091 16.1707 21.9896 14.4985 21.9896 13.6963C21.9896 13.1766 22.0232 13.1088 22.6499 12.4874C23.0192 12.1258 23.3662 11.7304 23.4333 11.6174C23.5452 11.4027 23.534 11.4027 22.9633 11.5948C22.012 11.9337 21.8777 11.8885 22.3477 11.3801C22.6947 11.0185 23.1088 10.3632 23.1088 10.1711C23.1088 10.1372 22.9409 10.1937 22.7506 10.2954C22.5492 10.4084 22.1015 10.5779 21.7658 10.6796L21.1614 10.8717L20.613 10.4988C20.3108 10.2954 19.8856 10.0694 19.6617 10.0017C19.0909 9.84347 18.218 9.86607 17.7032 10.0469C16.3042 10.5553 15.4201 11.8659 15.5208 13.3009Z" fill="white"/>
</svg>
