<svg width="32" height="33" viewBox="0 0 32 33" fill="none" xmlns="http://www.w3.org/2000/svg">
<path opacity="0.1" fill-rule="evenodd" clip-rule="evenodd" d="M0 16.2959C0 7.45934 7.16344 0.295898 16 0.295898C24.8366 0.295898 32 7.45934 32 16.2959C32 25.1325 24.8366 32.2959 16 32.2959C7.16344 32.2959 0 25.1325 0 16.2959Z" fill="white"/>
<path fill-rule="evenodd" clip-rule="evenodd" d="M24.5335 16.2841C24.5335 16.8612 24.4747 17.4375 24.3593 17.9992C24.2468 18.5476 24.0801 19.086 23.8618 19.6007C23.6485 20.1063 23.3839 20.5935 23.0747 21.0479C22.7701 21.4993 22.4192 21.9229 22.0338 22.309C21.6475 22.6935 21.2225 23.0434 20.7712 23.3493C20.3154 23.6563 19.8275 23.9205 19.3216 24.1348C18.8061 24.352 18.2665 24.5184 17.7186 24.6308C17.1561 24.7465 16.5777 24.8055 15.9997 24.8055C15.4214 24.8055 14.843 24.7465 14.2813 24.6308C13.7326 24.5184 13.1929 24.352 12.6779 24.1348C12.1721 23.9205 11.6837 23.6563 11.2278 23.3493C10.7766 23.0434 10.3516 22.6935 9.96611 22.309C9.58027 21.9229 9.2294 21.4993 8.92439 21.0479C8.61687 20.5935 8.35184 20.1063 8.13768 19.6007C7.9193 19.086 7.75224 18.5476 7.63931 17.9992C7.52515 17.4375 7.4668 16.8612 7.4668 16.2841C7.4668 15.7066 7.52511 15.129 7.63934 14.5685C7.75227 14.0201 7.91934 13.4809 8.13771 12.967C8.35187 12.4611 8.6169 11.9734 8.92442 11.519C9.22943 11.0672 9.5803 10.6444 9.96614 10.2578C10.3516 9.87336 10.7766 9.5243 11.2279 9.21889C11.6837 8.91055 12.1721 8.64637 12.6779 8.43165C13.193 8.21399 13.7326 8.04717 14.2814 7.93567C14.8431 7.82084 15.4214 7.76257 15.9998 7.76257C16.5777 7.76257 17.1561 7.82084 17.7186 7.93567C18.2665 8.0472 18.8061 8.21403 19.3216 8.43165C19.8275 8.64634 20.3154 8.91055 20.7713 9.21889C21.2225 9.5243 21.6476 9.87336 22.0338 10.2578C22.4193 10.6444 22.7701 11.0672 23.0747 11.519C23.3839 11.9734 23.6485 12.4611 23.8618 12.967C24.0801 13.4809 24.2468 14.0201 24.3593 14.5685C24.4747 15.129 24.5335 15.7066 24.5335 16.2841ZM12.8904 9.70195C10.8582 10.6602 9.34143 12.5301 8.86848 14.7837C9.0606 14.7853 12.0974 14.8236 15.5963 13.8953C14.335 11.6576 12.9875 9.83139 12.8904 9.70195ZM16.2001 15.0159C12.4479 16.1376 8.84724 16.0569 8.71808 16.0519C8.71597 16.1301 8.71223 16.2058 8.71223 16.2841C8.71223 18.1535 9.41851 19.8578 10.5794 21.1465C10.5769 21.1427 12.5712 17.6097 16.5039 16.3398C16.5989 16.3082 16.6956 16.2799 16.7914 16.2524C16.6085 15.8389 16.4089 15.4244 16.2001 15.0159ZM20.8125 10.8225C19.5295 9.69279 17.8448 9.00754 15.9997 9.00754C15.4076 9.00754 14.833 9.07911 14.2825 9.21142C14.3917 9.3579 15.7605 11.1712 17.0068 13.4563C19.7566 12.4269 20.7945 10.8491 20.8125 10.8225ZM17.2882 17.4583C17.2719 17.4636 17.2557 17.4683 17.2398 17.4741C12.9401 18.9709 11.536 21.9873 11.5208 22.0203C12.7579 22.981 14.3097 23.5606 15.9998 23.5606C17.009 23.5606 17.9703 23.3554 18.8449 22.9839C18.737 22.3481 18.3136 20.1196 17.2882 17.4583ZM20.072 22.319C21.7083 21.2164 22.8705 19.4655 23.1946 17.4374C23.0446 17.3892 21.0058 16.7446 18.6536 17.1212C19.6095 19.7443 19.9978 21.8805 20.072 22.319ZM17.5678 14.5407C17.7369 14.8877 17.9007 15.2409 18.0519 15.5958C18.1057 15.7232 18.1582 15.848 18.2095 15.9728C20.7129 15.6582 23.1793 16.1875 23.2847 16.2091C23.2681 14.4841 22.6501 12.9008 21.6276 11.6613C21.6138 11.6808 20.445 13.3673 17.5678 14.5407Z" fill="white"/>
</svg>
