<svg width="32" height="33" viewBox="0 0 32 33" fill="none" xmlns="http://www.w3.org/2000/svg">
<path opacity="0.1" fill-rule="evenodd" clip-rule="evenodd" d="M0 16.2959C0 7.45934 7.16344 0.295898 16 0.295898C24.8366 0.295898 32 7.45934 32 16.2959C32 25.1325 24.8366 32.2959 16 32.2959C7.16344 32.2959 0 25.1325 0 16.2959Z" fill="#0B0D17"/>
<path fill-rule="evenodd" clip-rule="evenodd" d="M15.5208 13.301L15.5544 13.8546L14.9948 13.7868C12.9579 13.527 11.1784 12.6457 9.66756 11.1655L8.92891 10.4311L8.73865 10.9735C8.33575 12.1824 8.59316 13.4592 9.43253 14.3179C9.8802 14.7924 9.77948 14.8602 9.00725 14.5777C8.73865 14.4874 8.50363 14.4196 8.48124 14.4535C8.4029 14.5326 8.6715 15.5607 8.88414 15.9675C9.17513 16.5324 9.76828 17.0861 10.4174 17.4137L10.9658 17.6736L10.3167 17.6849C9.68994 17.6849 9.66756 17.6962 9.73471 17.9335C9.95854 18.6679 10.8427 19.4475 11.8276 19.7864L12.5214 20.0237L11.9171 20.3853C11.0218 20.905 9.96973 21.1988 8.91772 21.2214C8.41409 21.2327 8 21.2779 8 21.3118C8 21.4248 9.36538 22.0575 10.16 22.3061C12.5438 23.0405 15.3753 22.7241 17.5017 21.47C19.0126 20.5774 20.5235 18.8035 21.2286 17.0861C21.6091 16.1709 21.9896 14.4987 21.9896 13.6965C21.9896 13.1767 22.0232 13.1089 22.6499 12.4875C23.0192 12.1259 23.3662 11.7305 23.4333 11.6175C23.5452 11.4028 23.534 11.4028 22.9633 11.5949C22.012 11.9339 21.8777 11.8887 22.3477 11.3802C22.6947 11.0187 23.1088 10.3633 23.1088 10.1713C23.1088 10.1374 22.9409 10.1939 22.7506 10.2955C22.5492 10.4085 22.1015 10.578 21.7658 10.6797L21.1614 10.8718L20.613 10.4989C20.3108 10.2955 19.8856 10.0696 19.6617 10.0018C19.0909 9.8436 18.218 9.86619 17.7032 10.047C16.3042 10.5554 15.4201 11.8661 15.5208 13.301Z" fill="#969BAB"/>
</svg>
