<svg width="70" height="80" viewBox="0 0 70 80" fill="none" xmlns="http://www.w3.org/2000/svg">
<g id="android-6 1" clip-path="url(#clip0_2088_727)">
<g id="Group">
<path id="Vector" d="M23.9644 48.126C26.6664 48.126 28.8567 50.3164 28.8567 53.0183V74.0048C28.8567 76.7067 26.6664 78.8967 23.9644 78.8967C21.2629 78.8967 19.0725 76.7067 19.0725 74.0048V53.0183C19.0725 50.3167 21.2629 48.1263 23.9644 48.1263V48.126Z" fill="#A4C639"/>
<path id="Vector_2" d="M12.7957 22.8943C12.7796 23.0798 12.7655 23.2674 12.7655 23.457V55.2536C12.7655 58.6731 15.4722 61.4279 18.8323 61.4279H51.1672C54.5277 61.4279 57.2344 58.6728 57.2344 55.2536V23.457C57.2344 23.2674 57.2275 23.0791 57.2117 22.8943H12.7957Z" fill="#A4C639"/>
<path id="Vector_3" d="M46.0358 48.126C48.7378 48.126 50.9281 50.3163 50.9281 53.0182V74.0048C50.9281 76.7067 48.7378 78.8967 46.0358 78.8967C43.3343 78.8967 41.1439 76.7067 41.1439 74.0048V53.0182C41.1439 50.3167 43.3343 48.1263 46.0358 48.1263V48.126ZM4.9051 25.7241C7.60666 25.7241 9.79704 27.9144 9.79704 30.6163V51.6029C9.79704 54.3048 7.60666 56.4952 4.9051 56.4952C2.2032 56.4952 0.0128174 54.3048 0.0128174 51.6032V30.6167C0.0124739 27.9148 2.20285 25.7241 4.9051 25.7241ZM65.0955 25.7241C67.7971 25.7241 69.9874 27.9144 69.9874 30.6163V51.6029C69.9874 54.3048 67.7971 56.4952 65.0955 56.4952C62.3936 56.4952 60.2032 54.3048 60.2032 51.6032V30.6167C60.2032 27.9148 62.3936 25.7241 65.0955 25.7241ZM12.9387 20.8057C13.0747 11.039 21.5992 3.03117 32.5415 1.97583H37.4581C48.4011 3.03151 56.9249 11.0397 57.0609 20.8057H12.9387Z" fill="#A4C639"/>
</g>
<path id="Vector_4" d="M14.6401 1.03296L19.8007 9.97174M55.3604 1.03296L50.1994 9.97174" stroke="#A4C639" stroke-width="1.0306" stroke-linecap="round" stroke-linejoin="round"/>
<path id="Vector_5" d="M28.428 12.0529C28.4321 13.4181 27.3022 14.5281 25.904 14.5319C24.5065 14.5353 23.3701 13.4319 23.366 12.0667V12.0529C23.3622 10.6874 24.4921 9.57776 25.8899 9.57398C27.2874 9.57021 28.4238 10.6733 28.428 12.0392V12.0529ZM47.321 12.0529C47.3251 13.4181 46.1952 14.5281 44.7971 14.5319C43.3996 14.5353 42.2631 13.4319 42.259 12.0667V12.0529C42.2552 10.6874 43.3851 9.57776 44.783 9.57398C46.1805 9.57021 47.3169 10.6733 47.321 12.0392V12.0529Z" fill="white"/>
</g>
<defs>
<clipPath id="clip0_2088_727">
<rect width="69.975" height="78.377" fill="white" transform="translate(0.0124512 0.776367)"/>
</clipPath>
</defs>
</svg>
