<svg width="74" height="75" viewBox="0 0 74 75" fill="none" xmlns="http://www.w3.org/2000/svg">
<g id="CSS3_logo 1" clip-path="url(#clip0_2088_655)">
<path id="Vector" d="M10.3818 67.2081L4.45898 0.776367H69.541L63.6118 67.1976L36.9602 74.5864L10.3818 67.2081Z" fill="#264DE4"/>
<path id="Vector_2" d="M58.5357 62.9684L63.6027 6.20825H36.9999V68.939L58.5357 62.9684Z" fill="#2965F1"/>
<path id="Vector_3" d="M18.0372 30.8466L18.7673 38.9941H37V30.8466H18.0372ZM17.3105 22.5034H37V14.3557H16.5698L17.3105 22.5034ZM37 52.0067L36.9642 52.0163L27.8902 49.5661L27.3103 43.0679H19.1312L20.2728 55.8609L36.9625 60.4942L37 60.4837V52.0067Z" fill="#EBEBEB"/>
<path id="Vector_4" d="M36.9718 30.8466V38.9941H47.0046L46.0589 49.5609L36.9718 52.0135V60.4901L53.6748 55.8609L53.7973 54.4843L55.7118 33.0344L55.9107 30.8466L57.3816 14.3557H36.9718V22.5034H48.4526L47.711 30.8466H36.9718Z" fill="white"/>
</g>
<defs>
<clipPath id="clip0_2088_655">
<rect width="73.81" height="73.81" fill="white" transform="translate(0.0949707 0.776367)"/>
</clipPath>
</defs>
</svg>
