<svg width="90" height="92" viewBox="0 0 90 92" fill="none" xmlns="http://www.w3.org/2000/svg">
<g id="Docker_ido12OLE9Y_12 1" clip-path="url(#clip0_2088_621)">
<path id="Vector" d="M77.7498 35.3655C77.2793 31.9494 75.3974 28.9833 72.0017 26.3036L70.0379 24.9739L68.7288 26.9582C67.0514 29.5151 66.2127 33.0744 66.4786 36.4906C66.6014 37.677 66.99 39.8453 68.1969 41.7068C66.99 42.3818 64.5967 43.2819 61.4056 43.2205H0.447268L0.324533 43.9365C-0.24823 47.3526 -0.24823 58.051 6.60447 66.2538C11.8207 72.4928 19.6144 75.6634 29.8014 75.6634C51.8936 75.6634 68.2174 65.3742 75.8883 46.6367C78.8953 46.698 85.3798 46.6571 88.7141 40.2135C88.7959 40.0703 89.0005 39.6817 89.5732 38.4543L89.9005 37.7793L88.039 36.511C85.9935 35.1814 81.35 34.67 77.7498 35.3655ZM49.1935 12.5164H39.927V21.0464H49.1935V12.5164ZM49.1935 22.7647H39.927V31.2948H49.1935V22.7647ZM38.2291 22.7647H28.9627V31.2948H38.2291V22.7647ZM27.2853 22.7647H18.0188V31.2948H27.2853V22.7647ZM16.321 33.0131H7.05449V41.5432H16.321V33.0131ZM27.2853 33.0131H18.0188V41.5432H27.2853V33.0131ZM38.2291 33.0131H28.9627V41.5432H38.2291V33.0131ZM49.1935 33.0131H39.927V41.5432H49.1935V33.0131ZM60.1578 33.0131H50.8913V41.5432H60.1578V33.0131Z" fill="#1D63ED"/>
</g>
<defs>
<clipPath id="clip0_2088_621">
<rect width="89" height="91.225" fill="white" transform="translate(0.5 0.776367)"/>
</clipPath>
</defs>
</svg>
