<svg width="50" height="74" viewBox="0 0 50 74" fill="none" xmlns="http://www.w3.org/2000/svg">
<g id="Figma_id69zKLS3A_6 1" clip-path="url(#clip0_2088_583)">
<path id="Vector" d="M25 37.3013C25 30.6458 30.3954 25.2502 37.0511 25.2502C43.7065 25.2502 49.1021 30.6458 49.1021 37.3013C49.1021 43.957 43.7065 49.3523 37.0511 49.3523C30.3954 49.3523 25 43.957 25 37.3013Z" fill="#1ABCFE"/>
<path id="Vector_2" d="M0.897949 61.4036C0.897949 54.7481 6.29338 49.3525 12.949 49.3525H25V61.4036C25 68.0593 19.6047 73.4546 12.949 73.4546C6.29338 73.4546 0.897949 68.0593 0.897949 61.4036Z" fill="#0ACF83"/>
<path id="Vector_3" d="M25 1.14819V25.2502H37.0511C43.7067 25.2502 49.1021 19.8548 49.1021 13.1992C49.1021 6.54364 43.7067 1.14819 37.0511 1.14819H25Z" fill="#FF7262"/>
<path id="Vector_4" d="M0.897949 13.1992C0.897949 19.8548 6.29338 25.2502 12.949 25.2502H25V1.14819H12.949C6.29338 1.14819 0.897949 6.54363 0.897949 13.1992Z" fill="#F24E1E"/>
<path id="Vector_5" d="M0.897949 37.3013C0.897949 43.957 6.29338 49.3523 12.949 49.3523H25V25.2502H12.949C6.29338 25.2502 0.897949 30.6458 0.897949 37.3013Z" fill="#A259FF"/>
</g>
<defs>
<clipPath id="clip0_2088_583">
<rect width="48.7" height="73.05" fill="white" transform="translate(0.650024 0.776367)"/>
</clipPath>
</defs>
</svg>
