<svg width="74" height="73" viewBox="0 0 74 73" fill="none" xmlns="http://www.w3.org/2000/svg">
<g id="GitHub_idhzJ1h-fp_3 1" clip-path="url(#clip0_2088_590)">
<g id="Group">
<path id="Vector" d="M37.0003 0.776367C16.8361 0.776367 0.484985 17.1244 0.484985 37.2917C0.484985 53.4251 10.9477 67.1126 25.4564 71.9409C27.2813 72.2789 27.9513 71.1488 27.9513 70.1843C27.9513 69.3136 27.9174 66.4372 27.9017 63.386C17.7431 65.5948 15.5995 59.0776 15.5995 59.0776C13.9385 54.857 11.5452 53.7347 11.5452 53.7347C8.23212 51.4683 11.7949 51.5149 11.7949 51.5149C15.4617 51.7725 17.3924 55.2778 17.3924 55.2778C20.6492 60.8602 25.9347 59.2463 28.0184 58.3133C28.3461 55.9532 29.2925 54.3424 30.3367 53.4305C22.2262 52.5072 13.7002 49.3762 13.7002 35.3845C13.7002 31.3979 15.1267 28.1405 17.4625 25.5833C17.0834 24.6636 15.8335 20.9496 17.8163 15.9199C17.8163 15.9199 20.8826 14.9385 27.8606 19.6629C30.7733 18.8538 33.8971 18.4481 37.0003 18.4342C40.1035 18.4481 43.2297 18.8538 46.1479 19.6629C53.1174 14.9385 56.1795 15.9199 56.1795 15.9199C58.167 20.9496 56.9166 24.6636 56.5374 25.5833C58.8787 28.1405 60.2955 31.3979 60.2955 35.3845C60.2955 49.4094 51.7532 52.4975 43.6221 53.4015C44.9319 54.5347 46.0989 56.7569 46.0989 60.1636C46.0989 65.0494 46.0565 68.9816 46.0565 70.1843C46.0565 71.1561 46.7138 72.2947 48.5648 71.9361C63.0655 67.1023 73.515 53.4196 73.515 37.2917C73.515 17.1244 57.1663 0.776367 37.0003 0.776367ZM14.1612 52.7932C14.0807 52.9746 13.7953 53.029 13.5353 52.9044C13.2705 52.7853 13.1217 52.538 13.2076 52.356C13.2862 52.1692 13.5722 52.1172 13.8364 52.2423C14.1019 52.3614 14.2531 52.6112 14.1612 52.7932ZM15.9573 54.3959C15.7832 54.5573 15.4427 54.4823 15.2117 54.2272C14.9729 53.9726 14.9281 53.6322 15.1047 53.4683C15.2843 53.3068 15.6144 53.3824 15.8539 53.637C16.0927 53.8946 16.1393 54.2326 15.9573 54.3959ZM17.1895 56.4464C16.9658 56.6018 16.6 56.4561 16.3738 56.1314C16.1501 55.8067 16.1501 55.4173 16.3787 55.2613C16.6054 55.1053 16.9658 55.2455 17.195 55.5678C17.4181 55.898 17.4181 56.2874 17.1895 56.4464ZM19.2735 58.8213C19.0733 59.042 18.647 58.9827 18.335 58.6816C18.0158 58.3871 17.9269 57.9693 18.1276 57.7486C18.3302 57.5273 18.7589 57.5896 19.0733 57.8883C19.3902 58.1821 19.4869 58.603 19.2735 58.8213ZM21.9668 59.623C21.8785 59.909 21.4679 60.039 21.0543 59.9175C20.6413 59.7923 20.371 59.4573 20.4545 59.1683C20.5404 58.8805 20.9527 58.745 21.3694 58.875C21.7818 58.9996 22.0527 59.3322 21.9668 59.623ZM25.0319 59.9631C25.0422 60.2642 24.6915 60.5139 24.2573 60.5194C23.8207 60.5291 23.4676 60.2854 23.4628 59.9891C23.4628 59.6849 23.8056 59.4376 24.2422 59.4304C24.6763 59.4219 25.0319 59.6638 25.0319 59.9631ZM28.043 59.8477C28.095 60.1415 27.7933 60.4433 27.3621 60.5237C26.9383 60.6011 26.5458 60.4197 26.492 60.1282C26.4394 59.8271 26.7466 59.5254 27.1699 59.4474C27.6016 59.3724 27.988 59.5489 28.043 59.8477Z" fill="#161614"/>
</g>
</g>
<defs>
<clipPath id="clip0_2088_590">
<rect width="73.03" height="71.3184" fill="white" transform="translate(0.484985 0.776367)"/>
</clipPath>
</defs>
</svg>
