<svg width="88" height="89" viewBox="0 0 88 89" fill="none" xmlns="http://www.w3.org/2000/svg">
<g id="mongodb-icon-2 1" clip-path="url(#clip0_2088_712)">
<path id="Vector" d="M44.3356 7.46924L46.0084 10.611C46.3844 11.1908 46.792 11.7039 47.27 12.1819C48.6757 13.57 49.9865 15.053 51.1919 16.6204C54.0244 20.3385 55.9361 24.4712 57.2997 28.9414C58.1185 31.6684 58.5613 34.4728 58.5964 37.3018C58.7335 45.7676 55.8307 53.0351 49.983 59.0761C49.0341 60.032 48.0045 60.9141 46.908 61.7013C46.3282 61.7013 46.054 61.2585 45.8151 60.8473C45.3793 60.0882 45.0911 59.2554 44.9611 58.3908C44.7538 57.3647 44.6202 56.342 44.687 55.2878V54.8098C44.6413 54.7009 44.1317 7.71172 44.3356 7.46924Z" fill="#599636"/>
<path id="Vector_2" d="M44.3356 7.36729C44.2689 7.23024 44.1986 7.33215 44.1283 7.40244C44.1634 8.08772 43.9209 8.6992 43.5484 9.28257C43.1373 9.86242 42.5926 10.3087 42.0443 10.7867C39.0115 13.4118 36.6218 16.5887 34.7101 20.1381C32.1622 24.914 30.8514 30.0343 30.4824 35.4287C30.3137 37.372 31.0974 44.2319 31.7124 46.2104C33.3852 51.4677 36.3864 55.8711 40.2802 59.6911C41.2361 60.6118 42.2587 61.4658 43.313 62.2881C43.6222 62.2881 43.6539 62.014 43.7241 61.8102C43.8612 61.3744 43.9631 60.9316 44.0334 60.4818L44.7187 55.365L44.3356 7.36729Z" fill="#6CAC48"/>
<path id="Vector_3" d="M46.0084 63.7746C46.0752 62.9909 46.4512 62.3443 46.8624 61.6941C46.4512 61.5255 46.1455 61.1846 45.9065 60.8085C45.6991 60.4501 45.5305 60.0741 45.3969 59.6805C44.919 58.2502 44.8171 56.7425 44.68 55.2806V54.395C44.5113 54.5321 44.4727 55.6918 44.4727 55.864C44.3743 57.4138 44.1669 58.9495 43.8577 60.4712C43.7558 61.0862 43.689 61.7012 43.3094 62.2459C43.3094 62.3126 43.3094 62.3829 43.3446 62.4848C43.9596 64.2947 44.1283 66.1362 44.2302 68.0163V68.7016C44.2302 69.5204 44.195 69.3482 44.8768 69.6223C45.1509 69.7242 45.4567 69.7594 45.7308 69.9632C45.9381 69.9632 45.9697 69.7945 45.9697 69.6539L45.8678 68.5259V65.3841C45.8362 64.8359 45.9381 64.2912 46.0084 63.7746Z" fill="#C2BFBF"/>
<path id="Vector_4" d="M16.9149 79.0211V80.5391C16.9149 80.6001 16.9149 80.6611 16.9257 80.7185C16.9436 80.898 17.0549 81.0092 17.2163 81.0594C17.3671 81.0989 17.5214 81.1276 17.6757 81.1491C17.7654 81.1599 17.7941 81.1994 17.8049 81.2963C17.8156 81.6372 17.7869 81.6767 17.4568 81.6551C16.6888 81.6157 15.9173 81.6049 15.1494 81.6551H15.0776C14.8372 81.6659 14.8192 81.6444 14.8192 81.4039C14.8192 81.3645 14.83 81.3142 14.83 81.2747C14.83 81.203 14.8803 81.1635 14.9484 81.1635C15.1099 81.1456 15.257 81.1025 15.4077 81.0738C15.6159 81.0235 15.7379 80.8944 15.7558 80.6827C15.7845 80.453 15.7845 80.2125 15.7845 79.9829L15.7953 77.3059C15.8025 77.148 15.7164 77.0008 15.5764 76.9255C15.397 76.825 15.2032 76.7461 15.0058 76.6851C14.9448 76.6672 14.8874 76.6564 14.8372 76.6241C14.69 76.5523 14.6864 76.4231 14.8264 76.3442C14.8767 76.3154 14.9376 76.2939 14.9951 76.2832C15.6007 76.1935 16.1958 76.0432 16.7714 75.8346C16.8898 75.7951 16.9221 75.8059 16.9329 75.9243C16.9436 75.9961 16.9329 76.0858 16.9221 76.154C16.9042 76.2832 16.9042 76.4123 16.9042 76.5344C16.9042 76.5846 16.9149 76.6349 16.9652 76.6635C17.0154 76.6922 17.0656 76.6635 17.1123 76.6348C17.3204 76.4733 17.5322 76.3262 17.7618 76.197C18.0919 76.0176 18.44 75.8561 18.8204 75.8059C19.2797 75.7449 19.6781 75.8669 20.0297 76.1647C20.1733 76.2939 20.3024 76.441 20.4101 76.6025C20.5106 76.7497 20.5213 76.7533 20.6505 76.6528C21.0309 76.3729 21.4293 76.1253 21.8599 75.9422C22.3084 75.752 22.7677 75.7234 23.2271 75.8812C23.6972 76.0499 24.0166 76.38 24.2067 76.8286C24.3682 77.1874 24.4364 77.5607 24.4364 77.9482V80.6252C24.4364 80.8047 24.5082 80.9159 24.6876 81.0056C24.8778 81.0774 25.0859 81.1168 25.2869 81.1563C25.416 81.1851 25.416 81.1851 25.416 81.3178C25.3981 81.648 25.3658 81.6659 25.0464 81.648C24.2457 81.6013 23.4429 81.6013 22.6422 81.648C22.4807 81.6587 22.4807 81.6587 22.4735 81.4972V81.447C22.4627 81.1779 22.4627 81.1778 22.7247 81.1168L22.983 81.0451C23.1625 81.002 23.2917 80.8406 23.2917 80.6539L23.3204 79.9039L23.3025 77.9482C23.2953 77.7724 23.2594 77.6001 23.1912 77.4387C22.94 76.8286 22.391 76.6097 21.8634 76.6707C21.4651 76.7102 21.1135 76.8717 20.7833 77.1013C20.7115 77.1516 20.6649 77.2126 20.6721 77.3095C20.7618 77.9482 20.7008 78.587 20.7115 79.2257V80.6145C20.7115 80.8657 20.812 80.9841 21.0524 81.0451L21.5118 81.1456C21.5835 81.1563 21.623 81.1851 21.623 81.264V81.3357C21.6122 81.6157 21.5943 81.6264 21.3144 81.6264C20.5142 81.5869 19.7175 81.5977 18.9281 81.6264C18.6589 81.6372 18.6374 81.6085 18.6481 81.3358C18.6589 81.1743 18.6769 81.1671 18.8276 81.1348L19.1577 81.0738C19.4484 81.0128 19.556 80.9051 19.5776 80.5929L19.6063 79.9219L19.5883 77.9159C19.5704 77.6647 19.5166 77.4279 19.3802 77.1982C19.1793 76.8286 18.867 76.6384 18.44 76.6205C18.0094 76.5918 17.6326 76.7497 17.2702 76.9506C17.019 77.0978 16.9114 77.27 16.9293 77.5607V79.0176L16.9149 79.0211ZM35.7294 79.0822V80.4889C35.7294 80.5894 35.7366 80.6898 35.7473 80.7867C35.7545 80.9231 35.855 81.0379 35.9878 81.0666C36.16 81.1169 36.3358 81.1456 36.5153 81.1563C36.6158 81.1671 36.6337 81.2066 36.6444 81.2855V81.3573C36.6337 81.7054 36.5942 81.7484 36.2533 81.7269C35.4925 81.6767 34.7354 81.6874 33.9782 81.7269L33.6876 81.7377C33.6265 81.7377 33.6158 81.709 33.5978 81.6659C33.5691 81.5274 33.5691 81.3845 33.5978 81.2461C33.6086 81.1851 33.6481 81.1743 33.7091 81.1563C33.8562 81.1384 33.9782 81.1061 34.1182 81.0845C34.3694 81.0236 34.459 80.9231 34.4662 80.6647L34.495 79.825V77.3669C34.495 77.1874 34.4232 77.0762 34.2653 76.9972C34.0859 76.8968 33.8957 76.8286 33.6947 76.7568C33.6337 76.7389 33.5763 76.7174 33.526 76.6851C33.3969 76.5954 33.3789 76.4661 33.5081 76.3657C33.5655 76.319 33.6337 76.2903 33.7091 76.2867C34.3478 76.1863 34.9686 76.0463 35.5679 75.8059C35.6397 75.7772 35.6684 75.7951 35.6971 75.8561C35.7258 75.9171 35.7366 75.9853 35.7258 76.0571L35.6971 76.5272C35.6971 76.5882 35.6684 76.6743 35.715 76.6958C35.776 76.7353 35.8155 76.6456 35.8658 76.6241C36.16 76.3764 36.4858 76.1688 36.8346 76.0068C37.1433 75.8597 37.4626 75.7664 37.8215 75.788C38.4925 75.8274 38.9698 76.1683 39.2784 76.7568C39.4399 77.0655 39.5081 77.4063 39.5368 77.7544L39.5655 78.4865L39.5763 80.6934C39.587 80.8621 39.648 80.9733 39.8167 81.0343C39.9924 81.0917 40.1724 81.1349 40.3549 81.1635C40.5164 81.1814 40.5236 81.2138 40.5344 81.3645V81.4147C40.5165 81.7556 40.4949 81.7628 40.154 81.7448C39.4093 81.7054 38.6631 81.7054 37.9184 81.7448C37.8179 81.7556 37.7174 81.7448 37.6277 81.7556C37.5667 81.7556 37.5272 81.7448 37.5164 81.6838C37.4985 81.5546 37.477 81.4255 37.5057 81.2855C37.5164 81.2245 37.5452 81.1958 37.6169 81.185L38.0763 81.1133C38.2377 81.0738 38.3275 80.9661 38.3454 80.8226L38.3633 80.5427L38.3526 78.4542C38.3526 78.2138 38.3418 77.9733 38.2916 77.7365C38.1732 77.2234 37.782 76.8609 37.2545 76.8071C36.7952 76.7568 36.3789 76.8789 35.9949 77.1264C35.8048 77.2449 35.7258 77.4171 35.7258 77.6253V79.1324C35.7258 79.1037 35.7258 79.1037 35.7366 79.1037L35.7294 79.0822Z" fill="#47474A"/>
<path id="Vector_5" d="M64.972 76.2584C64.8607 75.5299 64.5916 74.8804 64.1215 74.3098C63.7124 73.8075 63.1849 73.4163 62.5821 73.1723C61.9541 72.9139 61.283 72.8314 60.6048 72.8135C60.3249 72.8027 56.5103 72.8637 56.2304 72.8135C56.1586 72.8027 56.112 72.8242 56.0689 72.8852C56.0187 72.957 55.9684 73.0359 55.9398 73.1149C55.8213 73.384 55.8213 73.3661 56.1084 73.4055C56.3488 73.445 56.5785 73.4665 56.8082 73.5347C57.0163 73.6065 57.167 73.7249 57.2172 73.9546C57.2352 74.0658 57.2567 77.579 57.2567 79.2153L57.2173 80.3852C57.2065 80.4749 57.1993 80.5646 57.167 80.6435C57.1275 80.762 57.0557 80.8624 56.9373 80.9127C56.8046 80.9737 56.6646 81.0132 56.5175 81.0239C56.2483 81.0526 56.2089 81.0634 56.1192 81.3648L56.0904 81.4761C56.0725 81.6052 56.0797 81.6268 56.2089 81.6268L59.1945 81.6555L60.3644 81.6376L61.1717 81.537C62.0904 81.3684 62.9086 80.988 63.6084 80.378C64.0067 80.0263 64.3332 79.5993 64.5665 79.1184C64.8464 78.5586 64.9648 77.9486 64.9971 77.3313C65.0509 76.9761 65.033 76.6173 64.972 76.2584ZM63.5258 77.6759C63.4863 78.3146 63.3571 78.9354 63.027 79.4916C62.6071 80.2201 62.0079 80.7296 61.179 80.9091C60.8201 80.9808 60.4612 81.0203 60.0844 80.9701C59.8153 80.9414 59.5569 80.9091 59.3057 80.8194C58.8572 80.6579 58.6957 80.3816 58.6885 79.9438L58.6777 73.9223C58.6777 73.5634 58.8392 73.4845 59.0976 73.4737C59.4887 73.445 59.8871 73.4558 60.2746 73.4916C60.6909 73.5311 61.0964 73.6316 61.484 73.7823C61.7711 73.9008 62.0366 74.0658 62.2734 74.2704C62.8117 74.7297 63.1706 75.3074 63.3679 75.9857C63.5294 76.5347 63.5581 77.0945 63.5294 77.6543L63.5258 77.6759ZM73.2721 78.6555C73.2721 78.5945 73.2721 78.5443 73.2614 78.4868C73.1717 77.9378 72.881 77.518 72.4325 77.1986C72.1418 76.9904 71.8152 76.8505 71.4743 76.75C71.4133 76.7321 71.3631 76.7105 71.3056 76.6998C71.3164 76.6495 71.3451 76.6388 71.3774 76.628C71.5784 76.5275 71.7686 76.4199 71.9373 76.2692C72.2458 76.0108 72.4504 75.6914 72.5545 75.3003C72.6155 75.0921 72.6155 74.8804 72.5939 74.6615C72.5616 74.1412 72.2925 73.6639 71.8655 73.3625C71.4061 73.0216 70.8679 72.8816 70.3081 72.8744C69.2279 72.8565 68.1406 72.8744 67.0641 72.8744C66.7554 72.8744 66.4469 72.8924 66.1239 72.8457C66.0629 72.835 65.9768 72.817 65.9337 72.8852C65.8619 73.0144 65.7722 73.1436 65.7435 73.2943C65.7327 73.3661 65.7543 73.4055 65.8332 73.4127L66.5222 73.5132C66.7913 73.5527 66.9815 73.7034 67.0031 73.9438C67.021 74.1089 67.0318 74.2775 67.0318 74.4426L67.0139 76.3086L67.0031 80.0012C67.0031 80.2201 66.9744 80.4318 66.9313 80.6507C66.9098 80.7942 66.8093 80.9091 66.6729 80.9485C66.472 81.0095 66.2818 81.067 66.0736 81.067C65.9588 81.0562 65.8512 81.128 65.8153 81.2357C65.7758 81.3253 65.7435 81.4258 65.7256 81.5155C65.7076 81.634 65.7363 81.677 65.8547 81.6627C65.9445 81.6519 69.2387 81.7344 69.8595 81.6734C70.2291 81.634 70.5915 81.5837 70.9576 81.4725C71.5856 81.2715 72.1669 80.9844 72.6262 80.4928C73.0066 80.0945 73.2255 79.6136 73.2435 79.0538C73.2721 78.9246 73.2721 78.7955 73.2721 78.6555ZM68.4277 74.561L68.4564 73.7608C68.4564 73.6101 68.5174 73.5419 68.6645 73.5096C68.905 73.4593 69.1454 73.4809 69.3823 73.4917C69.6227 73.5096 69.8523 73.5419 70.0928 73.6101C70.5306 73.7393 70.8715 73.9905 71.0724 74.4103C71.1621 74.6005 71.2124 74.8086 71.2124 75.0204C71.2231 75.3002 71.2016 75.5694 71.0939 75.8385C70.9253 76.2082 70.6561 76.4486 70.265 76.5168C69.8739 76.5885 68.7686 76.5562 68.5964 76.5562C68.4456 76.5562 68.4349 76.5383 68.4349 76.3876V75.4474C68.4098 75.1567 68.4097 74.8625 68.4241 74.5682L68.4277 74.561ZM71.6717 79.933C71.503 80.3815 71.1908 80.6938 70.7531 80.8624C70.5126 80.9521 70.2722 81.0095 70.021 80.9916C69.7124 80.9808 69.4038 80.9916 69.0915 80.9306C68.6717 80.8409 68.4815 80.4426 68.4528 80.1519C68.4025 79.6423 68.4349 79.122 68.4241 78.7452V77.4282C68.4241 77.2668 68.442 77.2201 68.6143 77.2201L69.5545 77.2309L70.1932 77.3026C70.6418 77.4031 71.0509 77.5718 71.3703 77.9198C71.6286 78.1998 71.7686 78.5371 71.8009 78.9067C71.8296 79.2548 71.8117 79.5957 71.6824 79.9258L71.6717 79.933Z" fill="#C2BFBF"/>
<path id="Vector_6" d="M46.3011 76.9256L46.5595 76.9651C46.8393 76.9759 47.1695 76.8754 47.27 76.4843C47.3238 76.2979 47.3238 76.1001 47.27 75.9137C47.209 75.9137 47.1802 75.964 47.1515 75.9855C47.0008 76.1039 46.8322 76.1757 46.6528 76.1936C46.2939 76.2331 45.935 76.2115 45.5834 76.0824L45.0953 75.9137C44.7545 75.8025 44.3956 75.7558 44.0367 75.7738C43.5272 75.8132 43.0499 75.9819 42.5978 76.2223C42.1169 76.4807 41.7796 76.8718 41.6181 77.3993C41.5284 77.708 41.5176 78.0273 41.5571 78.3467C41.6576 79.0752 42.0379 79.5847 42.7162 79.8539C42.7557 79.8646 42.7879 79.8826 42.8274 79.8933C42.9171 79.9436 42.9279 79.9938 42.8453 80.062L42.5942 80.2307L41.9949 80.6003C41.8442 80.69 41.8262 80.7617 41.8765 80.9196C41.9375 81.1063 42.0451 81.2713 42.1958 81.4005C42.3322 81.5189 42.4865 81.6122 42.6551 81.6804C42.7664 81.7307 42.7664 81.7522 42.6659 81.8419L42.0954 82.251C41.9052 82.3981 41.715 82.5416 41.5571 82.7318C41.446 82.8499 41.366 82.9936 41.324 83.1502C41.282 83.3067 41.2795 83.4712 41.3166 83.629C41.392 83.977 41.5714 84.2893 41.837 84.5261C42.0961 84.7673 42.4122 84.9389 42.7556 85.0249C43.3154 85.1864 43.8932 85.1936 44.4638 85.0859C45.2819 84.9352 45.9996 84.5728 46.5595 83.9591C46.9506 83.55 47.1767 83.0692 47.1982 82.4986C47.2448 81.8132 46.7855 81.1996 46.1181 81.0417L45.5798 80.9412L43.9326 80.794C43.7532 80.7833 43.5738 80.7546 43.4231 80.6649C43.2329 80.5464 43.1827 80.3168 43.3047 80.1661C43.3944 80.0548 43.5057 79.9866 43.6456 79.9759L43.9649 79.9472C44.5961 79.883 45.1887 79.6132 45.6515 79.1792C45.8987 78.9499 46.0755 78.6549 46.1611 78.3288C46.2795 77.8982 46.2795 77.4532 46.179 77.0154C46.1504 76.9041 46.1611 76.8969 46.2975 76.9149L46.3011 76.9256ZM43.8537 81.8993C43.9147 81.9101 43.9721 81.8993 44.0332 81.8993C44.453 81.9172 44.8836 81.9496 45.2927 82.0608C45.4255 82.1003 45.5582 82.1505 45.6838 82.2115C46.0822 82.4304 46.2329 82.8108 46.1827 83.2199C46.1216 83.6684 45.874 83.9878 45.4829 84.1995C45.2245 84.3467 44.9339 84.4077 44.6324 84.44C44.5212 84.4507 44.4243 84.44 44.313 84.44C43.9649 84.4507 43.6241 84.4113 43.2939 84.2713C43.0642 84.1816 42.8741 84.0524 42.7054 83.873C42.3573 83.5249 42.1922 82.8862 42.7162 82.3658C43.0355 82.068 43.3944 81.8598 43.8537 81.8993ZM44.9949 78.7845C44.7867 79.312 44.3238 79.4735 43.8681 79.4017C43.4482 79.3407 43.1396 79.1111 42.9386 78.7307C42.6803 78.2211 42.6085 77.6936 42.7592 77.1446C42.8705 76.7355 43.118 76.4269 43.5594 76.3551C44.1193 76.2546 44.6539 76.4556 44.9374 77.0154C45.0846 77.2845 45.1456 77.6147 45.1456 78.0848C45.1348 78.2749 45.0953 78.5333 44.9949 78.7845ZM32.4136 78.1027C32.3239 77.5644 32.1229 77.0728 31.7533 76.6637C31.2043 76.0536 30.5045 75.7881 29.715 75.7845C29.0261 75.7737 28.3765 75.9747 27.7988 76.3336C27.2282 76.6745 26.812 77.2199 26.6289 77.8623C26.4603 78.44 26.4675 79.0321 26.6003 79.6206C26.9483 81.1996 28.1684 81.8778 29.6253 81.7773C30.056 81.7486 30.4651 81.6087 30.8526 81.4185C31.4304 81.1493 31.8502 80.7187 32.1409 80.1517C32.3705 79.6816 32.471 79.1828 32.4602 78.6123L32.4136 78.1027ZM30.9961 80.3204C30.849 80.7797 30.4471 81.1098 29.9662 81.1601C29.5284 81.2211 29.1158 81.1098 28.7498 80.8515C28.4842 80.6541 28.2689 80.3993 28.1218 80.1015C27.7127 79.2618 27.6409 78.3862 27.8526 77.4855C27.9208 77.2056 28.0643 76.9544 28.2725 76.757C28.6421 76.4161 29.0727 76.3372 29.55 76.4376C30.0093 76.5381 30.3574 76.7857 30.6445 77.1661C30.9315 77.5465 31.0643 77.9843 31.1433 78.4436C31.1827 78.6733 31.1827 78.9137 31.1935 79.0608C31.1935 79.5417 31.154 79.9364 31.0033 80.3204H30.9961ZM54.2316 78.1852C54.1599 77.6075 53.941 77.0764 53.5319 76.6386C52.9936 76.0501 52.2938 75.7989 51.5152 75.7881C50.8441 75.7773 50.2269 75.9675 49.6563 76.2977C49.0176 76.678 48.5762 77.2163 48.4075 77.9448C48.2065 78.7414 48.2891 79.5811 48.6479 80.3204C48.9781 81.0201 49.5379 81.4687 50.2772 81.6697C51.0953 81.8886 51.874 81.7881 52.6348 81.4185C53.2951 81.0991 53.7615 80.6003 54.0343 79.9221C54.1958 79.5237 54.2532 79.0931 54.2639 78.5943C54.2711 78.5046 54.2496 78.3431 54.2316 78.1852ZM52.8537 80.1912C52.6922 80.7295 52.3549 81.0811 51.7843 81.1601C51.3644 81.2211 50.9661 81.1206 50.6072 80.8802C50.2987 80.6721 50.0798 80.3922 49.9183 80.062C49.7388 79.7139 49.6384 79.3443 49.5989 78.9639C49.5379 78.4938 49.5379 78.0345 49.6492 77.5644C49.6707 77.4711 49.6994 77.3814 49.7388 77.2953C50.0187 76.5955 50.636 76.2761 51.368 76.4376C51.8561 76.5489 52.2257 76.818 52.5056 77.2271C52.7747 77.6254 52.9039 78.0668 52.9649 78.5405C52.9936 78.7307 53.0044 78.9316 52.9936 79.1003C52.9936 79.4914 52.9649 79.8503 52.8465 80.1984L52.8537 80.1912Z" fill="#47474A"/>
</g>
<defs>
<clipPath id="clip0_2088_712">
<rect width="87.86" height="87.86" fill="white" transform="translate(0.0700073 0.776367)"/>
</clipPath>
</defs>
</svg>
