<svg width="140" height="71" viewBox="0 0 140 71" fill="none" xmlns="http://www.w3.org/2000/svg">
<g id="Node.js_idSk99oxla_1 1" clip-path="url(#clip0_2088_556)">
<g id="Mask group">
<mask id="mask0_2088_556" style="mask-type:luminance" maskUnits="userSpaceOnUse" x="-1" y="28" width="141" height="43">
<g id="Group">
<path id="Vector" d="M139.159 28.8223H-0.158997V70.2412H139.159V28.8223Z" fill="white"/>
</g>
</mask>
<g mask="url(#mask0_2088_556)">
<g id="Group_2">
<path id="Vector_2" d="M122.453 69.9158C122.092 69.9158 121.756 69.8191 121.444 69.6499L118.25 67.7411C117.77 67.4753 118.01 67.3787 118.154 67.3303C118.802 67.1128 118.922 67.0645 119.595 66.6779C119.667 66.6296 119.763 66.6538 119.835 66.7022L122.284 68.1761C122.38 68.2244 122.5 68.2244 122.572 68.1761L132.154 62.5944C132.249 62.5461 132.298 62.4495 132.298 62.3287V51.1896C132.298 51.0689 132.249 50.9723 132.154 50.9239L122.572 45.3666C122.476 45.3182 122.356 45.3182 122.284 45.3666L112.703 50.9239C112.607 50.9723 112.559 51.093 112.559 51.1896V62.3287C112.559 62.4254 112.607 62.5461 112.703 62.5944L115.32 64.1167C116.737 64.8416 117.626 63.9959 117.626 63.1502V52.1562C117.626 52.0113 117.746 51.8663 117.914 51.8663H119.139C119.283 51.8663 119.427 51.987 119.427 52.1562V63.1502C119.427 65.0591 118.394 66.1705 116.593 66.1705C116.041 66.1705 115.609 66.1705 114.384 65.5665L111.863 64.1167C111.238 63.7542 110.854 63.0777 110.854 62.3528V51.2139C110.854 50.4889 111.238 49.8124 111.863 49.4499L121.444 43.8685C122.044 43.5302 122.861 43.5302 123.461 43.8685L133.042 49.4499C133.667 49.8124 134.051 50.4889 134.051 51.2139V62.3528C134.051 63.0777 133.667 63.7542 133.042 64.1167L123.461 69.6982C123.173 69.8191 122.813 69.9158 122.453 69.9158Z" fill="#5FA04E"/>
<path id="Vector_3" d="M125.431 62.2561C121.228 62.2561 120.363 60.3231 120.363 58.68C120.363 58.5351 120.483 58.3901 120.651 58.3901H121.9C122.044 58.3901 122.164 58.4867 122.164 58.6317C122.356 59.9123 122.908 60.5406 125.454 60.5406C127.471 60.5406 128.336 60.0815 128.336 58.9942C128.336 58.366 128.095 57.9069 124.95 57.5927C122.332 57.3269 120.699 56.747 120.699 54.6448C120.699 52.6877 122.332 51.5278 125.07 51.5278C128.144 51.5278 129.657 52.591 129.849 54.9107C129.849 54.9832 129.825 55.0556 129.777 55.1281C129.728 55.1765 129.657 55.2248 129.584 55.2248H128.311C128.192 55.2248 128.072 55.1281 128.048 55.0073C127.759 53.6783 127.014 53.2435 125.046 53.2435C122.836 53.2435 122.572 54.0166 122.572 54.5965C122.572 55.2972 122.884 55.5147 125.862 55.9013C128.816 56.2879 130.209 56.8436 130.209 58.9216C130.209 61.0479 128.456 62.2561 125.431 62.2561Z" fill="#5FA04E"/>
<path id="Vector_4" d="M139.263 50.5611C139.263 51.576 138.422 52.4217 137.413 52.4217C136.405 52.4217 135.564 51.6001 135.564 50.5611C135.564 49.498 136.429 48.7007 137.413 48.7007C138.398 48.7007 139.263 49.5221 139.263 50.5611ZM135.853 50.5611C135.853 51.4311 136.55 52.1318 137.389 52.1318C138.254 52.1318 138.951 51.4068 138.951 50.5611C138.951 49.6913 138.254 49.0148 137.389 49.0148C136.574 49.0148 135.853 49.6913 135.853 50.5611ZM136.718 49.5221H137.438C137.678 49.5221 138.159 49.5221 138.159 50.0779C138.159 50.4645 137.918 50.537 137.773 50.5853C138.062 50.6094 138.086 50.8029 138.11 51.0686C138.134 51.2377 138.159 51.5277 138.206 51.6243H137.773C137.773 51.5277 137.702 50.9961 137.702 50.9719C137.678 50.8512 137.63 50.8029 137.486 50.8029H137.126V51.6484H136.718V49.5221ZM137.102 50.4404H137.413C137.678 50.4404 137.726 50.2471 137.726 50.1504C137.726 49.8605 137.534 49.8605 137.413 49.8605H137.078V50.4404H137.102Z" fill="#5FA04E"/>
<path id="Vector_5" fill-rule="evenodd" clip-rule="evenodd" d="M22.6295 50.7133C22.6295 50.2784 22.3894 49.8677 22.0052 49.6502L11.8476 43.7303C11.6795 43.6337 11.4874 43.5854 11.2953 43.5613C11.2713 43.5613 11.1993 43.5613 11.1993 43.5613C11.0072 43.5613 10.815 43.6337 10.647 43.7303L0.465346 49.626C0.0811361 49.8435 -0.158997 50.2543 -0.158997 50.7133L-0.134983 66.564C-0.134983 66.7816 -0.0149167 66.999 0.177189 67.0956C0.369295 67.2165 0.609428 67.2165 0.777523 67.0956L6.82887 63.6162C7.21307 63.3988 7.45319 62.988 7.45319 62.5531V55.1351C7.45319 54.7002 7.69332 54.2894 8.07757 54.072L10.647 52.5739C10.8391 52.453 11.0552 52.4047 11.2713 52.4047C11.4874 52.4047 11.7035 52.453 11.8717 52.5739L14.441 54.072C14.8252 54.2894 15.0654 54.7002 15.0654 55.1351V62.5531C15.0654 62.988 15.3056 63.3988 15.6898 63.6162L21.6931 67.0956C21.8851 67.2165 22.1253 67.2165 22.3174 67.0956C22.5096 66.999 22.6295 66.7816 22.6295 66.564V50.7133Z" fill="#333333"/>
<path id="Vector_6" fill-rule="evenodd" clip-rule="evenodd" d="M71.5689 28.8948C71.3764 28.7981 71.1363 28.7981 70.9683 28.8948C70.7763 29.0156 70.6563 29.2089 70.6563 29.4263V45.132C70.6563 45.277 70.5843 45.4219 70.4397 45.5187C70.2957 45.5911 70.1517 45.5911 70.0077 45.5187L67.4624 44.0447C67.0784 43.8273 66.6218 43.8273 66.2378 44.0447L56.0561 49.9646C55.672 50.1821 55.432 50.5928 55.432 51.0277V62.8432C55.432 63.2783 55.672 63.6889 56.0561 63.9065L66.2378 69.8263C66.6218 70.0437 67.0784 70.0437 67.4624 69.8263L77.6441 63.9065C78.0281 63.6889 78.2682 63.2783 78.2682 62.8432V33.389C78.2682 32.9299 78.0281 32.5192 77.6441 32.3017L71.5689 28.8948ZM70.6323 58.9531C70.6323 59.0738 70.5843 59.1705 70.4883 59.2188L67.0058 61.2486C66.9098 61.2969 66.7898 61.2969 66.6938 61.2486L63.2119 59.2188C63.1159 59.1705 63.0679 59.0497 63.0679 58.9531V54.8938C63.0679 54.7729 63.1159 54.6763 63.2119 54.628L66.6938 52.5983C66.7898 52.55 66.9098 52.55 67.0058 52.5983L70.4883 54.628C70.5843 54.6763 70.6323 54.7971 70.6323 54.8938V58.9531Z" fill="#333333"/>
<path id="Vector_7" fill-rule="evenodd" clip-rule="evenodd" d="M105.45 54.797C105.835 54.5795 106.051 54.1688 106.051 53.7338V50.8584C106.051 50.4236 105.811 50.0128 105.45 49.7954L95.3406 43.8997C94.9565 43.6822 94.5005 43.6822 94.1159 43.8997L83.9348 49.8194C83.5502 50.037 83.3102 50.4478 83.3102 50.8827V62.6982C83.3102 63.1331 83.5502 63.5439 83.9348 63.7613L94.0439 69.5603C94.4285 69.7778 94.8845 69.7778 95.2446 69.5603L101.368 66.1293C101.56 66.0327 101.68 65.8152 101.68 65.5976C101.68 65.3803 101.56 65.1628 101.368 65.0661L91.1386 59.1462C90.9466 59.0255 90.8266 58.8322 90.8266 58.6147V54.9178C90.8266 54.7004 90.9466 54.4828 91.1386 54.3862L94.3325 52.5499C94.5245 52.4291 94.7645 52.4291 94.9565 52.5499L98.1504 54.3862C98.3424 54.5071 98.4625 54.7004 98.4625 54.9178V57.8173C98.4625 58.0348 98.5825 58.2522 98.775 58.3489C98.967 58.4697 99.207 58.4697 99.3991 58.3489L105.45 54.797Z" fill="#333333"/>
<path id="Vector_8" fill-rule="evenodd" clip-rule="evenodd" d="M94.5725 54.2416C94.6445 54.1932 94.7411 54.1932 94.8131 54.2416L96.7578 55.3772C96.8298 55.4255 96.8778 55.4981 96.8778 55.5947V57.866C96.8778 57.9626 96.8298 58.0352 96.7578 58.0835L94.8131 59.2191C94.7411 59.2674 94.6445 59.2674 94.5725 59.2191L92.6278 58.0835C92.5558 58.0352 92.5078 57.9626 92.5078 57.866V55.5947C92.5078 55.4981 92.5558 55.4255 92.6278 55.3772L94.5725 54.2416Z" fill="#5FA04E"/>
<path id="Vector_9" d="M39.6542 43.9482C39.2699 43.7308 38.8136 43.7308 38.4294 43.9482L28.3199 49.8198C27.9357 50.0373 27.7195 50.448 27.7195 50.883V62.6501C27.7195 63.0851 27.9597 63.4958 28.3199 63.7133L38.4294 69.5848C38.8136 69.8022 39.2699 69.8022 39.6542 69.5848L49.7637 63.7133C50.148 63.4958 50.364 63.0851 50.364 62.6501V50.883C50.364 50.448 50.1239 50.0373 49.7637 49.8198L39.6542 43.9482Z" fill="url(#paint0_linear_2088_556)"/>
<path id="Vector_10" d="M49.7877 49.8197L39.6301 43.9481C39.534 43.8998 39.414 43.8515 39.3179 43.8274L27.9357 63.4233C28.0317 63.544 28.1518 63.6407 28.2719 63.7132L38.4295 69.5848C38.7176 69.7539 39.0538 69.8022 39.366 69.7055L50.0519 50.0372C49.9799 49.9406 49.8837 49.8681 49.7877 49.8197Z" fill="url(#paint1_linear_2088_556)"/>
<path id="Vector_11" d="M49.788 63.713C50.0762 63.5438 50.2923 63.2539 50.3883 62.9398L39.2701 43.803C38.982 43.7547 38.6698 43.7787 38.4057 43.948L28.3201 49.7953L39.198 69.7537C39.3421 69.7295 39.5103 69.6811 39.6544 69.6087L49.788 63.713Z" fill="url(#paint2_linear_2088_556)"/>
</g>
</g>
</g>
</g>
<defs>
<linearGradient id="paint0_linear_2088_556" x1="43.1591" y1="48.3212" x2="33.9267" y2="67.0387" gradientUnits="userSpaceOnUse">
<stop stop-color="#3F873F"/>
<stop offset="0.3296" stop-color="#3F8B3D"/>
<stop offset="0.6367" stop-color="#3E9638"/>
<stop offset="0.9341" stop-color="#3DA92E"/>
<stop offset="1" stop-color="#3DAE2B"/>
</linearGradient>
<linearGradient id="paint1_linear_2088_556" x1="37.5054" y1="58.1405" x2="63.2656" y2="39.2253" gradientUnits="userSpaceOnUse">
<stop offset="0.1376" stop-color="#3F873F"/>
<stop offset="0.4016" stop-color="#52A044"/>
<stop offset="0.7129" stop-color="#64B749"/>
<stop offset="0.9081" stop-color="#6ABF4B"/>
</linearGradient>
<linearGradient id="paint2_linear_2088_556" x1="27.3491" y1="56.7625" x2="50.7421" y2="56.7625" gradientUnits="userSpaceOnUse">
<stop offset="0.0919165" stop-color="#6ABF4B"/>
<stop offset="0.2871" stop-color="#64B749"/>
<stop offset="0.5984" stop-color="#52A044"/>
<stop offset="0.8624" stop-color="#3F873F"/>
</linearGradient>
<clipPath id="clip0_2088_556">
<rect width="139" height="70" fill="white" transform="translate(0.5 0.776367)"/>
</clipPath>
</defs>
</svg>
