<svg width="98" height="86" viewBox="0 0 98 86" fill="none" xmlns="http://www.w3.org/2000/svg">
<g id="postgresql-vertical 1">
<path id="Vector" d="M10.6494 72.3118H6.42631V68.4495H10.887C12.5189 68.4495 13.3367 69.1023 13.3367 70.4105C13.3367 71.678 12.4436 72.3118 10.6576 72.3118M13.6984 68.4132C13.1182 67.9418 12.3077 67.7061 11.265 67.7061L5.20508 67.7369V76.9846H6.42631L6.41544 73.0516H10.9241C12.0547 73.0516 12.9459 72.8159 13.5942 72.3444C14.2424 71.873 14.5688 71.2202 14.5688 70.3833C14.5688 69.5465 14.2787 68.8937 13.6984 68.4223V68.4132ZM21.6016 75.028C21.4804 75.3362 21.2807 75.6072 21.0222 75.8141C20.4755 76.2982 19.6414 76.5394 18.5199 76.5394C17.5063 76.5394 16.7284 76.3037 16.1862 75.8322C15.6441 75.3608 15.3721 74.7316 15.3721 73.9419C15.3721 73.5312 15.4428 73.1658 15.5851 72.8476C15.7241 72.5337 15.9354 72.2573 16.2016 72.0407C16.7638 71.5765 17.5344 71.3444 18.5199 71.3444C20.6995 71.3444 21.7892 72.2102 21.7892 73.941C21.7892 74.3526 21.7258 74.7134 21.6034 75.0253M21.8246 71.6164C21.0812 70.9999 19.9787 70.6916 18.5199 70.6916C17.1418 70.6916 16.0756 71.0062 15.3249 71.6345C14.6468 72.2039 14.3077 72.9718 14.3077 73.9374C14.3077 74.9029 14.6576 75.6717 15.3594 76.2611C15.7561 76.584 16.2169 76.8192 16.7112 76.951C17.2252 77.0933 17.8291 77.1641 18.5217 77.1641C19.9723 77.1641 21.0784 76.8594 21.8373 76.2502C22.5154 75.6944 22.8545 74.9229 22.8545 73.9364C22.8545 72.9437 22.5118 72.1685 21.8255 71.6127L21.8246 71.6164ZM31.0596 75.2946C31.0596 76.5385 29.832 77.1595 27.3759 77.1595C26.6252 77.1595 25.9933 77.116 25.4792 77.0299C24.9652 76.9438 24.5481 76.7996 24.2281 76.6001C23.9806 76.4478 23.7748 76.2493 23.6388 76.0045C23.4849 75.7183 23.3885 75.4047 23.355 75.0815L24.4974 75.0725C24.4974 75.562 24.6968 75.922 25.0975 76.1541C25.5264 76.4324 26.287 76.5711 27.3777 76.5711C29.094 76.5711 29.9526 76.1813 29.9526 75.3925C29.9526 74.9365 29.6652 74.6219 29.0895 74.4496C28.9716 74.4161 28.2789 74.329 27.0069 74.1776L24.6297 73.7968C23.9525 73.552 23.6143 73.1123 23.6143 72.4768C23.6143 71.8548 23.9171 71.3915 24.5227 71.0878C24.8219 70.9609 25.1955 70.8648 25.6442 70.795C26.093 70.7251 26.6125 70.6907 27.2037 70.6907C29.5673 70.6907 30.7395 71.3634 30.7395 72.7098H29.6516C29.6516 71.7642 28.8211 71.2909 27.1583 71.2909C26.3133 71.2909 25.6823 71.387 25.2671 71.5783C24.8518 71.7696 24.6442 72.0642 24.6442 72.4614C24.6442 72.824 24.9162 73.0996 25.4856 73.2646C25.8138 73.3508 26.5681 73.4505 27.7485 73.562C28.8057 73.6481 29.5301 73.7705 29.9245 73.9292C30.6752 74.1939 31.0505 74.6436 31.0505 75.2783L31.0596 75.2946ZM35.5456 76.9791L35.0805 77.038L34.7904 77.058C34.0469 77.058 33.5102 76.9601 33.1811 76.7642C32.852 76.5684 32.6879 76.2257 32.6879 75.7352V71.5194H31.3325V70.8992H32.677L32.6879 68.9073H33.7305V70.8992H35.5438V71.5293L33.7305 71.5203V75.6219C33.7305 75.9274 33.8194 76.1387 33.9989 76.2547C34.1784 76.3708 34.4975 76.4288 34.9554 76.4288C35.0207 76.4351 35.0941 76.4333 35.173 76.4224C35.2519 76.4116 35.3724 76.3862 35.5338 76.3481L35.5447 76.9809L35.5456 76.9791ZM42.7506 75.5811C42.4565 75.7975 42.1275 75.9619 41.7778 76.067C41.4133 76.1795 40.9945 76.2357 40.5212 76.2357C38.3426 76.2357 37.2537 75.4197 37.2537 73.7878C37.2537 73.028 37.532 72.4323 38.0896 72.0035C38.6472 71.5747 39.4314 71.3689 40.4441 71.3689C41.4641 71.3689 42.2393 71.5865 42.7651 72.018C43.291 72.4496 43.5575 73.0307 43.5575 73.7587C43.5575 74.5521 43.2883 75.164 42.7488 75.5929M44.5983 70.9146H43.5602L43.5494 71.9573C43.0906 71.5339 42.7624 71.2664 42.5657 71.154C41.9827 70.8639 41.2284 70.7188 40.3027 70.7188C38.9464 70.7188 37.9119 70.9908 37.1975 71.562C36.5193 72.0788 36.1802 72.8249 36.1802 73.8032C36.1802 74.2855 36.2664 74.7171 36.4377 75.0969C36.607 75.4743 36.8641 75.8057 37.1875 76.0634C37.9128 76.6056 38.9137 76.8767 40.2211 76.8767C41.7896 76.8767 42.9048 76.4868 43.5612 75.698V76.786C43.5612 77.475 43.3218 78.0063 42.8358 78.3835C42.3499 78.7606 41.5729 78.9492 40.4786 78.9492C39.4505 78.9492 38.7179 78.8205 38.2809 78.5639C37.9527 78.3663 37.7369 78.0236 37.6028 77.5367H36.5311C36.649 78.2167 36.9663 78.7099 37.4831 79.0145C38.0815 79.3645 39.0905 79.5404 40.513 79.5404C43.233 79.5404 44.5929 78.6228 44.5929 76.7878V70.8947L44.5983 70.9146ZM50.2349 71.5266C49.9456 71.4824 49.6535 71.4594 49.3609 71.4577C47.6492 71.4577 46.7933 72.3099 46.7933 74.0144V76.9773H45.7634L45.7525 70.9146L46.7951 70.9237V72.0053H46.8495C47.0085 71.5975 47.3013 71.2557 47.68 71.0361C48.0952 70.8231 48.7136 70.7161 49.5386 70.7161H50.2367V71.5275L50.2349 71.5266ZM51.2032 73.552C51.3346 72.863 51.6293 72.3299 52.088 71.9518C52.3872 71.7342 52.7254 71.5692 53.1035 71.4595C53.4815 71.3498 53.9086 71.2963 54.3728 71.2963C55.2975 71.2963 56.0537 71.5266 56.6394 71.9872C57.225 72.4478 57.5188 72.9691 57.5188 73.5529H51.1905M57.6203 71.6826C57.2559 71.3507 56.8044 71.105 56.264 70.9464C55.7237 70.7877 55.0854 70.707 54.3719 70.707C53.0119 70.707 51.9756 70.9917 51.2313 71.5611C50.4869 72.1304 50.1161 72.9047 50.1161 73.8848C50.1161 74.8648 50.4733 75.6418 51.1878 76.2175C51.9602 76.8522 53.0509 77.1695 54.458 77.1695C55.0201 77.1695 55.5387 77.1115 56.0174 76.9882C56.4961 76.8649 56.9123 76.7098 57.2686 76.4986C57.8959 76.0906 58.2931 75.5856 58.4608 74.9863H57.3347C56.9485 76.0226 55.9866 76.5412 54.4489 76.5412C53.3628 76.5412 52.5269 76.2873 51.9466 75.7796C51.4434 75.3444 51.1923 74.7823 51.1923 74.0906H58.6267C58.6267 73.0625 58.2949 72.2555 57.6312 71.6717L57.6203 71.6826Z" fill="#231F20"/>
<path id="Vector_2" d="M69.6332 74.4902C69.6332 76.2899 68.0339 77.1901 64.8335 77.1901C62.9159 77.1901 61.517 76.8801 60.6357 76.2599C59.9141 75.7504 59.5532 74.9725 59.5532 73.9281H60.8406C60.8406 75.6081 62.1707 76.4485 64.8326 76.4485C66.1082 76.4485 67.0311 76.2672 67.6005 75.9317C68.081 75.628 68.3222 75.152 68.3222 74.5038C68.3222 73.8628 67.994 73.4131 67.3376 73.1556C66.9749 73.0169 66.0574 72.8419 64.6141 72.6298C62.7981 72.3786 61.6222 72.1275 61.0809 71.8773C60.3012 71.5073 59.9023 70.88 59.9023 69.9933C59.9023 69.1773 60.2341 68.5427 60.8978 68.1492C61.6122 67.7067 62.838 67.4846 64.5733 67.4846C67.7102 67.4846 69.2769 68.4293 69.2769 70.3197H67.9777C67.9777 68.9035 66.8136 68.1963 64.4853 68.1963C63.3176 68.1963 62.4635 68.3387 61.9232 68.6224C61.4118 68.9271 61.1571 69.3731 61.1571 69.9624C61.1571 70.579 61.4853 71.0114 62.1417 71.2626C62.4916 71.4076 63.5198 71.6098 65.226 71.8682C66.8308 72.0858 67.9133 72.3415 68.4754 72.6325C69.2415 72.9897 69.6241 73.6089 69.6241 74.4893L69.6332 74.4902ZM80.0957 75.4086C79.6022 75.7644 79.0502 76.031 78.4647 76.1965C77.8591 76.3714 77.18 76.4685 76.4284 76.4685C74.8871 76.4685 73.6568 76.094 72.7112 75.3442C71.7656 74.5944 71.3032 73.5854 71.3032 72.3369C71.3032 71.0359 71.7719 70.0223 72.7085 69.2952C73.645 68.568 74.8889 68.2054 76.4366 68.2054C78.005 68.2054 79.2399 68.5862 80.1375 69.345C80.586 69.6883 80.9464 70.1333 81.1891 70.6433C81.4249 71.1393 81.5282 71.7041 81.5282 72.3387C81.5282 73.6334 81.0541 74.657 80.1048 75.4095M80.7893 76.0224C81.4602 75.5927 81.9571 75.0722 82.278 74.4612C82.599 73.8501 82.7603 73.1438 82.7603 72.3442C82.7603 70.9099 82.2345 69.7603 81.1846 68.8935C80.6225 68.4175 79.9443 68.064 79.1501 67.8328C78.3559 67.6016 77.4457 67.4855 76.4266 67.4855C74.4429 67.4855 72.8862 67.9207 71.7556 68.7947C70.625 69.6687 70.0602 70.85 70.0602 72.3442C70.0427 73.025 70.189 73.7 70.4867 74.3125C70.7844 74.9249 71.2249 75.457 71.771 75.8637C72.9107 76.7559 74.471 77.2019 76.4465 77.2019C77.1232 77.2091 77.7993 77.1615 78.4683 77.0596C79.0431 76.9644 79.5327 76.8193 79.9344 76.6226L81.8383 77.8193L82.6325 77.1575L80.7902 76.0242L80.7893 76.0224ZM92.3979 76.9653H83.5972V67.7176L84.8066 67.6977V76.1928H92.4087L92.3979 76.9653Z" fill="#367FAF"/>
<g id="Vector_3">
<path d="M61.7346 45.7953C62.0809 42.9076 61.9776 42.4842 64.1281 42.952L64.6739 43.0001C66.3276 43.0754 68.4818 42.7345 69.7619 42.1433C72.4982 40.874 74.1201 38.7543 71.4229 39.311C65.2696 40.5803 64.8462 38.4968 64.8462 38.4968C71.344 28.8557 74.0603 16.6161 71.7157 13.6188C65.3203 5.4473 54.2512 9.31228 54.0654 9.41201L54.0065 9.42289C52.7898 9.17085 51.4298 9.02035 49.9012 8.99496C47.1178 8.94963 45.0036 9.7248 43.4006 10.9406C43.4006 10.9406 23.6541 2.80446 24.5717 21.1729C24.7675 25.0714 30.1729 50.74 36.619 42.9892C38.9763 40.1551 41.2519 37.7579 41.2519 37.7579C42.3825 38.5104 43.7361 38.8912 45.1559 38.7552L45.2647 38.6619C45.2302 39.0136 45.2466 39.3582 45.3082 39.7652C43.6472 41.6211 44.1359 41.9466 40.8149 42.6302C37.4558 43.3229 39.4296 44.555 40.7179 44.8768C42.28 45.2667 45.8948 45.8197 48.3355 42.4017L48.2384 42.7916C48.8912 43.3129 48.8459 46.5378 48.9384 48.8415C49.0308 51.1453 49.185 53.2958 49.6637 54.5642C50.1424 55.8326 50.6882 59.0974 55.0518 58.1617C58.6992 57.3802 61.4871 56.2551 61.7428 45.7916" fill="#231F20"/>
<path d="M61.7346 45.7953C62.0809 42.9076 61.9776 42.4842 64.1281 42.9521L64.6739 43.0001C66.3276 43.0754 68.4818 42.7345 69.7619 42.1433C72.4982 40.874 74.1201 38.7543 71.4229 39.311C65.2696 40.5803 64.8462 38.4968 64.8462 38.4968C71.344 28.8557 74.0603 16.6161 71.7157 13.6188C65.3203 5.4473 54.2512 9.31228 54.0654 9.41201L54.0065 9.42289C52.7898 9.17085 51.4298 9.02035 49.9012 8.99496C47.1178 8.94963 45.0036 9.7248 43.4006 10.9406C43.4006 10.9406 23.6541 2.80446 24.5717 21.1729C24.7675 25.0714 30.1729 50.74 36.619 42.9892C38.9763 40.1551 41.2519 37.7579 41.2519 37.7579C42.3825 38.5104 43.7361 38.8912 45.1559 38.7552L45.2647 38.6619C45.2302 39.0136 45.2466 39.3582 45.3082 39.7652C43.6472 41.6211 44.1359 41.9466 40.8149 42.6302C37.4558 43.3229 39.4296 44.555 40.7179 44.8768C42.28 45.2667 45.8948 45.8197 48.3355 42.4017L48.2384 42.7916C48.8912 43.3129 48.8459 46.5378 48.9384 48.8415C49.0308 51.1453 49.185 53.2958 49.6637 54.5642C50.1424 55.8326 50.6882 59.0974 55.0518 58.1617C58.6992 57.3802 61.4871 56.2551 61.7428 45.7916" stroke="#231F20" stroke-width="4.57488"/>
</g>
<path id="Vector_4" d="M71.4239 39.3109C65.2697 40.5802 64.8463 38.4968 64.8463 38.4968C71.3441 28.8547 74.0604 16.6151 71.7167 13.6187C65.3213 5.44812 54.2513 9.3122 54.0664 9.41192L54.0065 9.4228C52.7898 9.17076 51.4299 9.02026 49.8995 8.99487C47.1161 8.94954 45.0037 9.72471 43.3989 10.9405C43.3989 10.9405 23.6506 2.80528 24.5681 21.1728C24.763 25.0713 30.1684 50.7399 36.6155 42.99C38.9727 40.1559 41.2393 37.7588 41.2393 37.7588C42.3699 38.5113 43.7235 38.892 45.1433 38.7561L45.2539 38.6627C45.2194 39.0144 45.2358 39.359 45.2992 39.766C43.6383 41.6219 44.126 41.9474 40.8059 42.631C37.446 43.3237 39.4188 44.5558 40.708 44.8777C42.2702 45.2675 45.8849 45.8205 48.3256 42.4025L48.2286 42.7924C48.8795 43.3137 49.3365 46.1832 49.2594 48.7834C49.1823 51.3837 49.1325 53.1697 49.6447 54.565C50.157 55.9604 50.6692 59.0982 55.0338 58.1626C58.6811 57.381 60.5706 55.3556 60.8335 51.9775C61.0203 49.5749 61.4409 49.9303 61.4681 47.7834L61.8072 46.768C62.1971 43.5132 61.8689 42.4615 64.1164 42.9511L64.6622 42.9991C66.3159 43.0744 68.4791 42.7335 69.7511 42.1423C72.4865 40.873 74.1093 38.7533 71.4121 39.31L71.4239 39.3109Z" fill="#417BA2"/>
<g id="Group">
<g id="Group_2">
<path id="Vector_5" d="M48.6012 41.178C48.4316 47.2362 48.6438 53.3269 49.2358 54.8193C49.8278 56.3116 51.098 59.1856 55.4644 58.2509C59.1109 57.4694 60.4382 55.9571 61.013 52.6171C61.4373 50.1691 62.2551 43.3367 62.3593 41.9387M43.3789 10.8067C43.3789 10.8067 23.617 2.73765 24.5364 21.097C24.7322 24.9955 30.1375 50.6651 36.5946 42.9143C38.9518 40.0801 41.0824 37.857 41.0824 37.857M54.0446 9.33251C53.3601 9.54738 65.0375 5.06408 71.6732 13.5429C74.0168 16.5384 71.3105 28.778 64.8027 38.421" stroke="white" stroke-width="1.52496" stroke-linecap="round" stroke-linejoin="round"/>
<path id="Vector_6" d="M64.8028 38.4199C64.8028 38.4199 65.2262 40.5052 71.3804 39.2341C74.0768 38.6774 72.4539 40.7971 69.7195 42.0673C67.4747 43.11 62.4428 43.3756 62.3603 41.9368C62.1482 38.2232 65.0077 39.3502 64.8028 38.4199ZM64.8028 38.4199C64.616 37.5822 63.3368 36.7599 62.4909 34.7091C61.752 32.9185 52.3611 19.1875 65.0957 21.2274C65.5626 21.1313 61.7747 9.1148 49.8569 8.91987C37.9392 8.72494 38.3427 23.5729 38.3427 23.5729" stroke="white" stroke-width="1.52496" stroke-linecap="round" stroke-linejoin="bevel"/>
</g>
<g id="Group_3">
<path id="Vector_7" d="M45.2674 39.6912C43.6065 41.5471 44.0952 41.8726 40.7742 42.5562C37.4151 43.2489 39.3888 44.481 40.6762 44.8028C42.2384 45.1927 45.8531 45.7475 48.2938 42.3277C49.0372 41.2869 48.2893 39.6259 47.2693 39.2016C46.7761 38.9976 46.1161 38.7411 45.2674 39.6912Z" stroke="white" stroke-width="1.52496" stroke-linejoin="round"/>
<path id="Vector_8" d="M45.1578 39.6583C44.991 38.5676 45.5168 37.2693 46.0799 35.7507C46.9267 33.4723 48.8814 31.1922 47.3174 23.9645C46.1524 18.5772 38.3381 22.843 38.3327 23.5746C38.3272 24.3063 38.6953 27.2773 38.2021 30.737C37.5702 35.2521 41.0762 39.0726 45.1125 38.6819" stroke="white" stroke-width="1.52496" stroke-linecap="round" stroke-linejoin="round"/>
</g>
</g>
<g id="Group_4">
<path id="Vector_9" d="M43.2991 23.4628C43.2629 23.7122 43.7561 24.3785 44.3961 24.4674C45.0362 24.5562 45.5838 24.0367 45.6201 23.7874C45.6564 23.5381 45.1632 23.2634 44.5231 23.1736C43.883 23.0839 43.3336 23.2135 43.2991 23.4628Z" fill="white" stroke="white" stroke-width="0.508622"/>
<path id="Vector_10" d="M62.8034 22.9543C62.8379 23.2036 62.3465 23.8609 61.7064 23.9588C61.0663 24.0568 60.5187 23.5282 60.4825 23.2789C60.4462 23.0295 60.9403 22.7548 61.5813 22.6651C62.2223 22.5753 62.769 22.7059 62.8053 22.9552L62.8034 22.9543Z" fill="white" stroke="white" stroke-width="0.253858"/>
</g>
<path id="Vector_11" d="M65.0955 21.2273C65.2006 23.1838 64.6739 24.5184 64.6077 26.6009C64.508 29.6291 66.0511 33.0942 63.7283 36.5648" stroke="white" stroke-width="1.52496" stroke-linecap="round" stroke-linejoin="round"/>
</g>
</svg>
