<svg width="74" height="74" viewBox="0 0 74 74" fill="none" xmlns="http://www.w3.org/2000/svg">
<g id="python-5 1" clip-path="url(#clip0_2088_737)">
<path id="Vector" d="M36.6873 0.796875C18.1942 0.796875 19.3489 8.81658 19.3489 8.81658L19.3694 17.1252H37.017V19.6197H12.36C12.36 19.6197 0.526306 18.2776 0.526306 36.937C0.526306 55.597 10.8551 54.9352 10.8551 54.9352H17.0193V46.2763C17.0193 46.2763 16.687 35.9475 27.1832 35.9475H44.6865C44.6865 35.9475 54.5203 36.1064 54.5203 26.4434V10.4662C54.5203 10.4662 56.0139 0.796875 36.6873 0.796875ZM26.9564 6.38428C27.3734 6.38391 27.7864 6.46577 28.1718 6.62519C28.5571 6.7846 28.9073 7.01844 29.2022 7.31332C29.497 7.60821 29.7309 7.95834 29.8903 8.34369C30.0497 8.72905 30.1316 9.14205 30.1312 9.55908C30.1316 9.9761 30.0497 10.3891 29.8903 10.7745C29.7309 11.1598 29.497 11.51 29.2022 11.8048C28.9073 12.0997 28.5571 12.3336 28.1718 12.493C27.7864 12.6524 27.3734 12.7342 26.9564 12.7339C26.5394 12.7342 26.1264 12.6524 25.741 12.493C25.3557 12.3336 25.0055 12.0997 24.7106 11.8048C24.4158 11.51 24.1819 11.1598 24.0225 10.7745C23.8631 10.3891 23.7812 9.9761 23.7816 9.55908C23.7812 9.14205 23.8631 8.72905 24.0225 8.34369C24.1819 7.95834 24.4158 7.60821 24.7106 7.31332C25.0055 7.01844 25.3557 6.7846 25.741 6.62519C26.1264 6.46577 26.5394 6.38391 26.9564 6.38428Z" fill="url(#paint0_linear_2088_737)"/>
<path id="Vector_2" d="M37.2125 73.2648C55.7056 73.2648 54.5509 65.2451 54.5509 65.2451L54.5304 56.9367H36.8825V54.4422H61.5395C61.5395 54.4422 73.3732 55.7843 73.3732 37.1244C73.3732 18.4647 63.0444 19.1264 63.0444 19.1264H56.8803V27.7851C56.8803 27.7851 57.2126 38.1139 46.7163 38.1139H29.213C29.213 38.1139 19.3792 37.955 19.3792 47.6183V63.5958C19.3792 63.5958 17.8859 73.2648 37.2122 73.2648H37.2125ZM46.9434 67.678C46.5264 67.6783 46.1134 67.5965 45.728 67.4371C45.3427 67.2777 44.9925 67.0438 44.6977 66.7489C44.4028 66.4541 44.1689 66.1039 44.0095 65.7186C43.8501 65.3332 43.7682 64.9202 43.7686 64.5032C43.7682 64.0861 43.85 63.6731 44.0094 63.2877C44.1688 62.9023 44.4027 62.5521 44.6975 62.2572C44.9924 61.9623 45.3426 61.7285 45.728 61.569C46.1133 61.4096 46.5264 61.3277 46.9434 61.3281C47.3604 61.3277 47.7734 61.4096 48.1588 61.569C48.5441 61.7284 48.8943 61.9623 49.1892 62.2571C49.484 62.552 49.7179 62.9022 49.8773 63.2875C50.0367 63.6729 50.1186 64.0859 50.1182 64.5029C50.1186 64.9199 50.0367 65.3329 49.8773 65.7183C49.7179 66.1036 49.484 66.4538 49.1892 66.7486C48.8943 67.0435 48.5441 67.2774 48.1588 67.4368C47.7734 67.5962 47.3604 67.6783 46.9434 67.678Z" fill="url(#paint1_linear_2088_737)"/>
</g>
<defs>
<linearGradient id="paint0_linear_2088_737" x1="700.582" y1="652.604" x2="4310.65" y2="4226.66" gradientUnits="userSpaceOnUse">
<stop stop-color="#387EB8"/>
<stop offset="1" stop-color="#366994"/>
</linearGradient>
<linearGradient id="paint1_linear_2088_737" x1="1052.66" y1="1133.3" x2="4929.46" y2="4798.16" gradientUnits="userSpaceOnUse">
<stop stop-color="#FFE052"/>
<stop offset="1" stop-color="#FFC331"/>
</linearGradient>
<clipPath id="clip0_2088_737">
<rect width="73.03" height="72.7379" fill="white" transform="translate(0.484985 0.776367)"/>
</clipPath>
</defs>
</svg>
