<svg width="124" height="71" viewBox="0 0 124 71" fill="none" xmlns="http://www.w3.org/2000/svg">
<g id="Ruby_On_Rails_Logo 1">
<g id="Group">
<path id="Vector" fill-rule="evenodd" clip-rule="evenodd" d="M106.023 63.0847V68.5015H115.809C117.814 68.5015 121.256 67.0351 121.375 62.9351V60.8402C121.375 57.3388 118.502 55.2738 115.809 55.2738H110.931V52.7599H120.597V47.3132H111.32C108.926 47.3132 105.723 49.2884 105.723 52.9694V54.8548C105.723 58.5358 108.896 60.4212 111.32 60.4212C118.053 60.4512 109.704 60.4212 115.929 60.4212V63.0548M53.5906 61.768C53.5906 61.768 58.8278 61.319 58.8278 54.5555C58.8278 47.792 52.4833 47.1636 52.4833 47.1636H41.0511V68.5015H46.7971V63.3541L51.765 68.5015H60.2643L53.5906 61.768ZM51.376 57.3986H46.7971V52.5205H51.4059C51.4059 52.5205 52.6928 52.9993 52.6928 54.9446C52.6928 56.8899 51.376 57.3986 51.376 57.3986ZM73.0132 47.3132H67.1774C63.0176 47.3132 61.611 51.084 61.611 52.8796V68.5015H67.4468V64.7607H72.9234V68.5015H78.5796V52.8796C78.5796 48.3307 74.4497 47.3132 73.0132 47.3132ZM72.9234 58.7154H67.4168V53.538C67.4168 53.538 67.4168 52.3709 69.2424 52.3709H71.2475C72.8636 52.3709 72.8935 53.538 72.8935 53.538V58.7154H72.9234Z" fill="#CC0000"/>
<path id="Vector_2" d="M87.3182 47.313H81.243V68.5013H87.3182V47.313Z" fill="#CC0000"/>
<path id="Vector_3" fill-rule="evenodd" clip-rule="evenodd" d="M95.8475 63.0247V47.313H89.8022V63.0247V68.5013H95.8475H104.018V63.0247H95.8475Z" fill="#CC0000"/>
<path id="Vector_4" fill-rule="evenodd" clip-rule="evenodd" d="M4.98901 68.5015H28.6313C28.6313 68.5015 24.1124 47.8818 39.0759 39.5322C42.3379 37.946 52.7226 32.0205 69.7211 44.5898C70.2598 44.1409 70.7686 43.7818 70.7686 43.7818C70.7686 43.7818 55.2065 28.2497 37.8788 29.9855C29.17 30.7636 18.4562 38.6942 12.1715 49.1687C5.88682 59.6431 4.98901 68.5015 4.98901 68.5015Z" fill="#CC0000"/>
<path id="Vector_5" fill-rule="evenodd" clip-rule="evenodd" d="M4.98901 68.5015H28.6313C28.6313 68.5015 24.1124 47.8818 39.0759 39.5322C42.3379 37.946 52.7226 32.0205 69.7211 44.5898C70.2598 44.1409 70.7686 43.7818 70.7686 43.7818C70.7686 43.7818 55.2065 28.2497 37.8788 29.9855C29.17 30.7636 18.4562 38.6942 12.1715 49.1687C5.88682 59.6431 4.98901 68.5015 4.98901 68.5015Z" fill="#CC0000"/>
<path id="Vector_6" fill-rule="evenodd" clip-rule="evenodd" d="M4.98901 68.5013H28.6313C28.6313 68.5013 24.1124 47.8816 39.0759 39.532C42.3379 37.9459 52.7226 32.0203 69.7211 44.5897C70.2598 44.1408 70.7686 43.7816 70.7686 43.7816C70.7686 43.7816 55.2065 28.2495 37.8788 29.9853C29.1401 30.7634 18.4262 38.694 12.1416 49.1685C5.8569 59.6429 4.98901 68.5013 4.98901 68.5013ZM54.2489 31.6612L54.3686 29.6561C54.0992 29.5065 53.3511 29.1473 51.4657 28.6086L51.3459 30.5838C52.3335 30.913 53.2912 31.2721 54.2489 31.6612Z" fill="#CC0000"/>
<path id="Vector_7" fill-rule="evenodd" clip-rule="evenodd" d="M51.4058 38.0058L51.2861 39.8912C52.2737 39.9211 53.2613 40.0408 54.2489 40.2503L54.3686 38.3948C53.3511 38.1854 52.3635 38.0656 51.4058 38.0058ZM40.3329 28.6686H40.6321L40.0336 26.843C39.1058 26.843 38.1482 26.9029 37.1606 27.0226L37.7292 28.7883C38.5971 28.6985 39.465 28.6686 40.3329 28.6686ZM41.7693 39.6817L42.4577 41.7467C43.3256 41.3277 44.1934 40.9686 45.0613 40.6992L44.4029 38.724C43.3854 39.0233 42.5175 39.3525 41.7693 39.6817ZM28.1825 31.8109L26.8358 29.7459C26.0876 30.135 25.3095 30.554 24.5015 31.0328L25.8781 33.1277C26.6562 32.6489 27.4044 32.2 28.1825 31.8109ZM34.3175 45.2781L35.754 47.4328C36.2628 46.6846 36.8613 45.9963 37.5197 45.308L36.173 43.2729C35.4847 43.9014 34.8562 44.5897 34.3175 45.2781ZM29.9781 54.9145L32.4022 56.8299C32.5219 55.6627 32.7314 54.4956 33.0307 53.3284L30.8759 51.6226C30.4869 52.7299 30.2175 53.8372 29.9781 54.9145ZM16.8701 40.6992L14.7453 38.8437C13.9672 39.5919 13.219 40.3401 12.5307 41.0883L14.835 43.0635C15.4635 42.2554 16.1518 41.4474 16.8701 40.6992ZM7.83212 54.0766L4.39052 52.8197C3.8219 54.1065 3.19344 55.6029 2.89417 56.4109L6.33577 57.6678C6.72482 56.6503 7.35329 55.1839 7.83212 54.0766ZM29.5292 62.516C29.5891 64.1021 29.7387 65.389 29.8883 66.2868L33.4796 67.5737C33.2102 66.4065 32.9409 65.0897 32.7613 63.6832L29.5292 62.516Z" fill="#CC0000"/>
</g>
</g>
</svg>
