<svg width="92" height="95" viewBox="0 0 92 95" fill="none" xmlns="http://www.w3.org/2000/svg">
<g id="React_id5YvT7HN2_2 1" clip-path="url(#clip0_2088_577)">
<g id="Group">
<path id="Vector" d="M84.3651 46.7592C84.3651 41.6676 77.9889 36.8423 68.2129 33.85C70.4689 23.8861 69.4663 15.9588 65.0483 13.4208C64.03 12.8255 62.8393 12.5435 61.539 12.5435V16.0371C62.2596 16.0371 62.8393 16.1781 63.325 16.4445C65.4556 17.6665 66.38 22.3194 65.6593 28.304C65.487 29.7767 65.205 31.3277 64.8603 32.91C61.7897 32.158 58.437 31.5783 54.912 31.2023C52.7971 28.304 50.6038 25.6721 48.3948 23.3691C53.5021 18.6221 58.296 16.0215 61.5547 16.0215V12.5278C57.2464 12.5278 51.6064 15.5985 45.9038 20.9251C40.2012 15.6298 34.5612 12.5905 30.2529 12.5905V16.0841C33.4959 16.0841 38.3055 18.6691 43.4128 23.3847C41.2195 25.6877 39.0262 28.304 36.9425 31.2023C33.4019 31.5783 30.0493 32.158 26.9786 32.9257C26.6183 31.359 26.352 29.8393 26.164 28.3824C25.4276 22.3977 26.3363 17.7448 28.4513 16.5071C28.9213 16.2251 29.5323 16.0998 30.2529 16.0998V12.6062C28.9369 12.6062 27.7463 12.8882 26.7123 13.4835C22.31 16.0215 21.323 23.9331 23.5947 33.8656C13.8501 36.8736 7.50513 41.6832 7.50513 46.7592C7.50513 51.8508 13.8814 56.6761 23.6573 59.6684C21.4013 69.6323 22.404 77.5596 26.822 80.0976C27.8403 80.6929 29.0309 80.9749 30.3469 80.9749C34.6552 80.9749 40.2952 77.9043 45.9978 72.5776C51.7004 77.8729 57.3404 80.9122 61.6487 80.9122C62.9646 80.9122 64.1553 80.6302 65.1893 80.0349C69.5916 77.4969 70.5786 69.5853 68.3069 59.6528C78.0202 56.6604 84.3651 51.8352 84.3651 46.7592ZM63.9673 36.3096C63.3876 38.3306 62.667 40.4143 61.8523 42.4979C61.21 41.2446 60.5363 39.9913 59.8 38.7379C59.0793 37.4846 58.3117 36.2626 57.544 35.072C59.7687 35.401 61.915 35.8083 63.9673 36.3096ZM56.792 52.9945C55.57 55.1095 54.3167 57.1148 53.0164 58.9791C50.6821 59.1828 48.3164 59.2924 45.9351 59.2924C43.5695 59.2924 41.2038 59.1828 38.8852 58.9948C37.5849 57.1304 36.3159 55.1408 35.0939 53.0415C33.9032 50.9892 32.8222 48.9055 31.8353 46.8062C32.8066 44.7069 33.9032 42.6076 35.0782 40.5553C36.3002 38.4403 37.5535 36.435 38.8539 34.5706C41.1882 34.367 43.5538 34.2573 45.9351 34.2573C48.3008 34.2573 50.6664 34.367 52.9851 34.555C54.2854 36.4193 55.5544 38.4089 56.7764 40.5083C57.967 42.5606 59.048 44.6442 60.035 46.7435C59.048 48.8428 57.967 50.9422 56.792 52.9945ZM61.8523 50.9578C62.6983 53.0571 63.419 55.1565 64.0143 57.1931C61.962 57.6944 59.8 58.1174 57.5597 58.4464C58.3274 57.2401 59.095 56.0025 59.8157 54.7335C60.5363 53.4801 61.21 52.2112 61.8523 50.9578ZM45.9665 67.674C44.5095 66.17 43.0525 64.4937 41.6112 62.6607C43.0212 62.7234 44.4625 62.7704 45.9195 62.7704C47.3921 62.7704 48.8491 62.7391 50.2748 62.6607C48.8648 64.4937 47.4078 66.17 45.9665 67.674ZM34.3106 58.4464C32.0859 58.1174 29.9396 57.7101 27.8873 57.2088C28.4669 55.1878 29.1876 53.1041 30.0023 51.0205C30.6446 52.2738 31.3183 53.5271 32.0546 54.7805C32.7909 56.0338 33.5429 57.2558 34.3106 58.4464ZM45.8881 25.8444C47.3451 27.3484 48.8021 29.0247 50.2434 30.8577C48.8334 30.795 47.3921 30.748 45.9351 30.748C44.4625 30.748 43.0055 30.7793 41.5798 30.8577C42.9898 29.0247 44.4468 27.3484 45.8881 25.8444ZM34.2949 35.072C33.5272 36.2783 32.7596 37.5159 32.0389 38.7849C31.3183 40.0383 30.6446 41.2916 30.0023 42.5449C29.1563 40.4456 28.4356 38.3463 27.8403 36.3096C29.8926 35.824 32.0546 35.401 34.2949 35.072ZM20.1167 54.6865C14.5707 52.3208 10.9831 49.2188 10.9831 46.7592C10.9831 44.2996 14.5707 41.1819 20.1167 38.8319C21.464 38.2523 22.9367 37.7353 24.4563 37.2496C25.3493 40.3203 26.5243 43.5162 27.9813 46.7905C26.54 50.0492 25.3806 53.2295 24.5033 56.2845C22.9523 55.7988 21.4797 55.2661 20.1167 54.6865ZM28.5453 77.0739C26.4146 75.852 25.4903 71.199 26.211 65.2144C26.3833 63.7417 26.6653 62.1907 27.01 60.6084C30.0806 61.3604 33.4332 61.9401 36.9582 62.3161C39.0732 65.2144 41.2665 67.8464 43.4755 70.1493C38.3682 74.8963 33.5742 77.4969 30.3156 77.4969C29.6106 77.4813 29.0153 77.3403 28.5453 77.0739ZM65.7063 65.136C66.4426 71.1207 65.534 75.7736 63.419 77.0113C62.949 77.2933 62.338 77.4186 61.6173 77.4186C58.3743 77.4186 53.5647 74.8336 48.4574 70.118C50.6508 67.815 52.8441 65.1987 54.9277 62.3004C58.4684 61.9244 61.821 61.3447 64.8916 60.5771C65.252 62.1594 65.534 63.6791 65.7063 65.136ZM71.7379 54.6865C70.3906 55.2661 68.9179 55.7831 67.3983 56.2688C66.5053 53.1981 65.3303 50.0022 63.8733 46.7279C65.3146 43.4692 66.4739 40.2889 67.3513 37.234C68.9023 37.7196 70.3749 38.2523 71.7536 38.8319C77.2995 41.1976 80.8872 44.2996 80.8872 46.7592C80.8715 49.2188 77.2839 52.3365 71.7379 54.6865Z" fill="#61DAFB"/>
<path id="Vector_2" d="M45.9195 53.9188C49.8736 53.9188 53.0791 50.7134 53.0791 46.7592C53.0791 42.8051 49.8736 39.5996 45.9195 39.5996C41.9653 39.5996 38.7599 42.8051 38.7599 46.7592C38.7599 50.7134 41.9653 53.9188 45.9195 53.9188Z" fill="#61DAFB"/>
</g>
</g>
<defs>
<clipPath id="clip0_2088_577">
<rect width="90.43" height="93.3471" fill="white" transform="translate(0.785034 0.776367)"/>
</clipPath>
</defs>
</svg>
