<svg width="55" height="55" viewBox="0 0 55 55" fill="none" xmlns="http://www.w3.org/2000/svg">
<g clip-path="url(#clip0_2065_321)">
<mask id="mask0_2065_321" style="mask-type:luminance" maskUnits="userSpaceOnUse" x="-22" y="0" width="99" height="88">
<path d="M76.9364 0.103638H-21.7V87.26H76.9364V0.103638Z" fill="white"/>
</mask>
<g mask="url(#mask0_2065_321)">
<path d="M31.8678 11.2698C32.8686 11.4738 33.8537 11.78 34.7957 12.1783C35.7219 12.5708 36.6168 13.0555 37.4568 13.6227C38.2888 14.1839 39.0717 14.8315 39.7861 15.5438C40.4984 16.2563 41.1441 17.0391 41.7053 17.8712C42.2725 18.7092 42.7572 19.6041 43.1496 20.5303L53.0971 16.3229C52.428 14.7392 51.6076 13.2341 50.6559 11.8251C49.704 10.4161 48.6209 9.10324 47.4219 7.90618C46.2227 6.70716 44.9119 5.6239 43.5029 4.67213C42.094 3.72038 40.5888 2.90009 39.0051 2.23091C37.4214 1.56173 35.7573 1.03973 34.0342 0.688458C33.0432 0.48633 32.0287 0.35485 31.0024 0.266541V11.1304C31.2929 11.1697 31.5833 11.2128 31.8697 11.2698H31.8678Z" fill="#156D7C"/>
<path d="M41.7053 35.3916C41.1421 36.2256 40.4965 37.0087 39.7842 37.721C39.0717 38.4334 38.2888 39.0791 37.4568 39.6423C36.6188 40.2094 35.7239 40.694 34.7977 41.0866C33.8557 41.4849 32.8706 41.7911 31.8697 41.9952C31.5833 42.0541 31.2929 42.0972 31.0024 42.1365V52.9983C32.0307 52.91 33.0452 52.7785 34.0342 52.5764C35.7573 52.2232 37.4214 51.7031 39.0051 51.0339C40.5888 50.3629 42.094 49.5445 43.5029 48.5928C44.9119 47.641 46.2247 46.5578 47.4219 45.3587C48.6209 44.1597 49.704 42.8488 50.6559 41.4398C51.6076 40.0307 52.4279 38.5256 53.0971 36.942L43.1496 32.7346C42.7572 33.6608 42.2725 34.5557 41.7053 35.3936V35.3916Z" fill="#83C4CF"/>
<path d="M13.274 23.4033C13.4782 22.4005 13.7842 21.4154 14.1826 20.4754C14.5751 19.549 15.0617 18.6523 15.6269 17.8163C16.1901 16.9842 16.8357 16.2012 17.5482 15.4889C17.9052 15.1317 18.2781 14.7922 18.6667 14.4724C19.0552 14.1505 19.4595 13.8483 19.8756 13.5677C20.7136 13.0025 21.6083 12.5158 22.5347 12.1234C23.4765 11.725 24.4617 11.4189 25.4645 11.2148C26.3456 11.0342 27.2541 10.9459 28.1667 10.9184V0.103638C26.5025 0.133074 24.8738 0.307727 23.2999 0.629562C21.5769 0.982795 19.9128 1.50283 18.3292 2.17201C16.7456 2.8412 15.2404 3.66147 13.8313 4.61324C12.4223 5.56501 11.1095 6.64825 9.91246 7.84729C8.71332 9.04435 7.63015 10.3572 6.67831 11.7662C5.72661 13.1752 4.90638 14.6804 4.2372 16.264C3.56803 17.8477 3.04596 19.5118 2.69467 21.2349C2.49458 22.2141 2.36311 23.2169 2.27673 24.2334H13.1405C13.1779 23.9527 13.219 23.674 13.276 23.4014L13.274 23.4033Z" fill="#33879A"/>
<path d="M26.2259 42.0991C25.9845 42.0618 25.7412 42.0363 25.5017 41.9892C25.4822 41.9853 25.4605 41.9833 25.4389 41.9793C24.4382 41.7753 23.451 41.4691 22.511 41.0708C21.5828 40.6783 20.688 40.1936 19.852 39.6264C19.5753 39.438 19.3123 39.2281 19.0454 39.0241C18.7805 38.8179 18.5214 38.606 18.2703 38.3842C18.0171 38.1625 17.762 37.9447 17.5246 37.7073C17.287 37.4698 17.0693 37.2127 16.8456 36.9616C16.402 36.4571 15.9762 35.9352 15.6013 35.3799C15.3188 34.9618 15.0559 34.5281 14.8145 34.0846C14.5731 33.6392 14.3533 33.1839 14.157 32.7208C13.9569 32.2497 13.7822 31.767 13.6292 31.2784C13.4781 30.7898 13.3485 30.2914 13.2465 29.7909C13.1935 29.5319 13.166 29.267 13.1268 29.004C13.1033 28.8489 13.0758 28.6958 13.0561 28.5389C12.9973 28.0522 12.962 27.5615 12.9444 27.0671H2.13733C2.14719 27.5596 2.16875 28.0502 2.20398 28.5389C2.22371 28.8018 2.23737 29.0647 2.26485 29.3259C2.33362 29.9931 2.43366 30.6504 2.54949 31.3039C2.58866 31.5218 2.62206 31.7395 2.66517 31.9554C2.88499 33.0327 3.17935 34.0827 3.52669 35.109C3.73467 35.7252 3.95844 36.3335 4.20968 36.9262C4.37637 37.3226 4.55307 37.713 4.7395 38.0997C5.29679 39.2575 5.93652 40.3682 6.65079 41.424C7.12777 42.1286 7.63602 42.8094 8.17571 43.463C8.71525 44.1164 9.28635 44.7444 9.88493 45.343C10.2833 45.7413 10.715 46.1083 11.1389 46.4831C11.9866 47.2307 12.8657 47.9432 13.8038 48.577C14.155 48.8144 14.5142 49.044 14.8792 49.2658C15.2443 49.4875 15.6132 49.6995 15.988 49.9035C16.2823 50.0644 16.5963 50.1921 16.8985 50.3412C17.1085 50.4471 17.3224 50.5492 17.5363 50.6474C17.7953 50.767 18.0406 50.9064 18.3037 51.0163C18.6117 51.1458 18.9316 51.2537 19.2475 51.3715C19.4203 51.4362 19.5891 51.5049 19.7636 51.5657C19.8853 51.6089 20.0011 51.6599 20.1228 51.7011C20.2425 51.7424 20.3662 51.7718 20.4858 51.811C20.8215 51.9209 21.1589 52.021 21.5004 52.1172C21.6672 52.1643 21.8261 52.2232 21.9949 52.2663C22.4188 52.3742 22.8446 52.4743 23.2764 52.5626C23.7081 52.651 24.1418 52.7294 24.5813 52.7961H24.5853C25.1289 52.8805 25.6803 52.9374 26.2336 52.9884C26.5025 53.012 26.7733 53.0337 27.0461 53.0493C27.2974 53.0649 27.5504 53.0709 27.8017 53.0788C27.9233 53.0827 28.047 53.0847 28.1686 53.0886V42.2777C27.5172 42.2541 26.8676 42.1952 26.2279 42.0991H26.2259Z" fill="#5BA6B4"/>
</g>
</g>
<defs>
<clipPath id="clip0_2065_321">
<rect width="55" height="55" fill="white"/>
</clipPath>
</defs>
</svg>
