<svg width="204" height="32" viewBox="0 0 204 32" fill="none" xmlns="http://www.w3.org/2000/svg">
<path d="M10.0496 11.4134C10.0496 12.4929 9.10235 13.368 7.93388 13.368C6.76541 13.368 5.81818 12.4929 5.81818 11.4134C5.81818 10.3339 6.76541 9.48918 7.93388 9.48918C9.10235 9.48918 10.0496 10.3339 10.0496 11.4134Z" fill="#4F3895"/>
<path d="M17.4545 11.4286C17.4545 12.4997 16.5073 13.368 15.3388 13.368C14.1704 13.368 13.2231 12.4997 13.2231 11.4286C13.2231 10.3575 14.1704 9.48918 15.3388 9.48918C16.5073 9.48918 17.4545 10.3575 17.4545 11.4286Z" fill="#4F3895"/>
<path fill-rule="evenodd" clip-rule="evenodd" d="M2.90909 0C1.30244 0 0 1.36447 0 3.04762V28.9524C0 30.6355 1.30244 32 2.90909 32H20.3636C21.9703 32 23.2727 30.6355 23.2727 28.9524V3.04762C23.2727 1.36447 21.9703 0 20.3636 0H2.90909ZM6.54545 7.61905C4.53715 7.61905 2.90909 9.32463 2.90909 11.4286C2.90909 13.5325 4.53715 15.2381 6.54545 15.2381H16.7273C18.7356 15.2381 20.3636 13.5325 20.3636 11.4286C20.3636 9.32463 18.7356 7.61905 16.7273 7.61905H6.54545Z" fill="#4F3895"/>
<path d="M46.4388 17.629H57.3188V14.6617H46.4388V4.77082H59.7915V1.80354H42.4824V30.4872H46.4388V17.629Z" fill="#4F3895"/>
<path d="M68.2567 30.9817C73.0044 30.9817 76.9113 27.1243 76.9113 22.3272C76.9113 17.5795 73.0044 13.6726 68.2567 13.6726C63.4596 13.6726 59.6022 17.5795 59.6022 22.3272C59.6022 27.1243 63.4596 30.9817 68.2567 30.9817ZM68.2567 16.6399C70.8284 16.6399 72.9549 19.2115 72.9549 22.3272C72.9549 25.4923 70.8284 28.0145 68.2567 28.0145C65.6356 28.0145 63.5586 25.4923 63.5586 22.3272C63.5586 19.2115 65.6356 16.6399 68.2567 16.6399Z" fill="#4F3895"/>
<path d="M84.1073 22.3272C84.1073 19.2115 86.1844 16.6399 88.8055 16.6399C89.1022 16.6399 89.4484 16.6894 89.7946 16.7883V13.7221C89.5473 13.7221 89.3 13.6726 89.0528 13.6726C87.1735 13.6726 85.492 14.3155 84.1073 15.3541V14.2166H80.1509V30.4872H84.1073V22.3272Z" fill="#4F3895"/>
<path d="M111.808 13.6726C109.632 13.6726 107.653 14.7112 106.368 16.2937C105.032 14.7112 103.104 13.6726 100.928 13.6726C99.5429 13.6726 98.2571 14.0683 97.2186 14.7606V14.1672H93.2622V30.4872H97.2186V21.0414C97.2186 18.6181 98.7517 16.6399 100.631 16.6399C102.56 16.6399 104.093 18.6675 104.093 21.0908V30.4872H108.099V21.0908H108.049C108.099 18.6181 109.632 16.6399 111.511 16.6399C113.44 16.6399 114.973 18.6675 114.973 21.0908V30.4872H118.979V21.0908C118.979 17.0355 115.764 13.6726 111.808 13.6726Z" fill="#4F3895"/>
<path d="M130.869 30.9817C134.182 30.9817 137.1 29.1025 138.534 26.2835H134.232C133.342 27.3715 132.155 28.0145 130.869 28.0145C128.693 28.0145 126.863 26.2341 126.319 23.8108H139.375C139.474 23.3657 139.523 22.8712 139.523 22.3272C139.523 21.8326 139.474 21.3381 139.375 20.8435C138.683 16.7883 135.122 13.6726 130.869 13.6726C126.566 13.6726 123.006 16.7883 122.313 20.8435C122.214 21.3381 122.214 21.8326 122.214 22.3272C122.214 22.8712 122.214 23.3657 122.313 23.8108C123.006 27.9155 126.566 30.9817 130.869 30.9817ZM130.869 16.6399C132.995 16.6399 134.825 18.4697 135.369 20.8435H126.319C126.863 18.4697 128.693 16.6399 130.869 16.6399Z" fill="#4F3895"/>
<path d="M154.89 22.2777C153.555 21.3875 151.725 20.893 149.747 20.893C147.966 20.893 146.532 19.9039 146.532 18.7665C146.532 17.629 147.966 16.6894 149.747 16.6894C151.478 16.6894 152.961 17.629 152.961 18.7665H156.918C156.918 15.9475 153.703 13.7221 149.747 13.7221C145.741 13.7221 142.576 15.9475 142.576 18.7665C142.576 20.1512 143.318 21.3875 144.554 22.2777C145.889 23.2668 147.719 23.8603 149.747 23.8603C151.626 23.8603 153.208 24.7999 153.208 25.9374C153.208 27.0748 151.626 28.0639 149.747 28.0639C147.818 28.0639 146.285 27.0748 146.285 25.9374H142.328C142.328 28.7563 145.642 31.0312 149.747 31.0312C153.802 31.0312 157.165 28.7563 157.165 25.9374C157.165 24.5032 156.275 23.2174 154.89 22.2777Z" fill="#4F3895"/>
<path d="M166.505 0.814453H162.549V14.2166H160.076V17.1839H162.549V24.7999C162.549 28.2617 165.269 30.9817 168.731 30.9817H170.214V28.0145H168.731C167.494 28.0145 166.505 26.5803 166.505 24.7999V17.1839H171.203V14.2166H166.505V0.814453Z" fill="#4F3895"/>
<path d="M181.794 30.9817C185.107 30.9817 188.025 29.1025 189.459 26.2835H185.156C184.266 27.3715 183.079 28.0145 181.794 28.0145C179.618 28.0145 177.788 26.2341 177.244 23.8108H190.3C190.399 23.3657 190.448 22.8712 190.448 22.3272C190.448 21.8326 190.399 21.3381 190.3 20.8435C189.607 16.7883 186.047 13.6726 181.794 13.6726C177.491 13.6726 173.93 16.7883 173.238 20.8435C173.139 21.3381 173.139 21.8326 173.139 22.3272C173.139 22.8712 173.139 23.3657 173.238 23.8108C173.93 27.9155 177.491 30.9817 181.794 30.9817ZM181.794 16.6399C183.92 16.6399 185.75 18.4697 186.294 20.8435H177.244C177.788 18.4697 179.618 16.6399 181.794 16.6399Z" fill="#4F3895"/>
<path d="M197.644 22.3272C197.644 19.2115 199.721 16.6399 202.342 16.6399C202.639 16.6399 202.985 16.6894 203.331 16.7883V13.7221C203.084 13.7221 202.837 13.6726 202.59 13.6726C200.71 13.6726 199.029 14.3155 197.644 15.3541V14.2166H193.688V30.4872H197.644V22.3272Z" fill="#4F3895"/>
</svg>
